# This file uses centimeters as units for non-parametric coordinates.

mtllib Cupboard.mtl
g default
v -15.374494 -2.178046 -5.694100
v -12.317464 -2.178046 -5.694100
v -15.374494 2.178046 -5.694100
v -12.317464 2.178046 -5.694100
v -15.374494 2.178046 -13.679951
v -12.317464 2.178046 -13.679951
v -15.374494 -2.178046 -13.679951
v -12.317464 -2.178046 -13.679951
v -15.374494 -1.942706 -13.248509
v -15.374494 -1.942706 -6.125540
v -15.374494 1.942706 -6.125540
v -15.374494 1.942706 -13.248509
v -15.554326 -1.942706 -13.248509
v -15.554326 -1.942706 -6.125540
v -15.554326 1.942706 -6.125540
v -15.554326 1.942706 -13.248509
v -15.374494 2.178046 -12.402885
v -12.317464 2.178046 -12.402885
v -12.317464 -2.178046 -12.402885
v -15.374494 -2.178046 -12.402885
v -15.374494 -1.942706 -12.109433
v -15.554326 -1.942706 -12.109433
v -15.554326 1.942706 -12.109433
v -15.374494 1.942706 -12.109433
v -15.374494 -2.178046 -12.874311
v -12.317464 -2.178046 -12.874311
v -12.317464 2.178046 -12.874311
v -15.374494 2.178046 -12.874311
v -15.374494 1.942706 -12.529921
v -15.554326 1.942706 -12.529921
v -15.554326 -1.942706 -12.529921
v -15.374494 -1.942706 -12.529921
v -15.374494 0.543052 -5.694100
v -12.317464 0.543052 -5.694100
v -12.317464 0.543052 -12.402885
v -12.317464 0.543052 -12.874311
v -12.317464 0.543052 -13.679951
v -15.374494 0.543052 -13.679951
v -15.374494 0.484375 -13.248509
v -15.554326 0.484375 -13.248509
v -15.554326 0.238938 -12.529921
v -15.554326 0.484375 -12.109433
v -15.554326 0.484375 -6.125540
v -15.374494 0.484375 -6.125540
v -15.374494 -0.182354 -5.694100
v -12.317464 -0.182354 -5.694100
v -12.317464 -0.182354 -12.402885
v -12.317464 -0.182354 -12.874311
v -12.317464 -0.182354 -13.679951
v -15.374494 -0.182354 -13.679951
v -15.374494 -0.162651 -13.248509
v -15.554326 -0.162651 -13.248509
v -15.554326 0.082786 -12.529921
v -15.554326 -0.162651 -12.109433
v -15.554326 -0.162651 -6.125540
v -15.374494 -0.162651 -6.125540
v -15.961862 0.421988 -12.550062
v -15.961862 0.421988 -12.089293
v -15.961862 -0.100264 -12.550062
v -15.961862 -0.100264 -12.089293
v -15.770699 0.570505 -12.681094
v -15.770699 -0.248781 -12.681094
v -15.770699 -0.248781 -11.958261
v -15.770699 0.570505 -11.958261
v -15.374494 2.178046 -5.854266
v -12.317464 2.178046 -5.854266
v -12.317464 0.543052 -5.854266
v -12.317464 -0.182354 -5.854266
v -12.317464 -2.178046 -5.854265
v -15.374494 -2.178046 -5.854265
v -15.374494 -1.942706 -6.268400
v -15.554326 -1.942706 -6.268400
v -15.554326 -0.162651 -6.268400
v -15.554326 0.484375 -6.268400
v -15.554325 1.942706 -6.268400
v -15.374494 1.942706 -6.268400
v -15.374494 -2.178046 -13.518375
v -12.317464 -2.178046 -13.518375
v -12.317464 -0.182354 -13.518375
v -12.317464 0.543052 -13.518375
v -12.317464 2.178046 -13.518375
v -15.374494 2.178046 -13.518375
v -15.374494 1.942706 -13.104392
v -15.554326 1.942706 -13.104392
v -15.554326 0.484375 -13.104392
v -15.554326 -0.162651 -13.104392
v -15.554326 -1.942706 -13.104392
v -15.374494 -1.942706 -13.104392
v -15.374494 2.048166 -13.679951
v -12.317464 2.048166 -13.679951
v -12.317464 2.048167 -13.518375
v -12.317464 2.048167 -12.874311
v -12.317464 2.048166 -12.402885
v -12.317464 2.048166 -5.854266
v -12.317464 2.048167 -5.694100
v -15.374494 2.048167 -5.694100
v -15.374494 1.826860 -6.125540
v -15.554326 1.826860 -6.125540
v -15.554325 1.826860 -6.268400
v -15.554326 1.826860 -12.109433
v -15.554326 1.826860 -12.529921
v -15.554326 1.826860 -13.104392
v -15.554326 1.826860 -13.248509
v -15.374494 1.826860 -13.248509
v -15.374494 -2.074277 -5.694100
v -12.317464 -2.074277 -5.694100
v -12.317464 -2.074276 -5.854265
v -12.317464 -2.074276 -12.402885
v -12.317464 -2.074277 -12.874311
v -12.317464 -2.074277 -13.518375
v -12.317464 -2.074276 -13.679951
v -15.374494 -2.074276 -13.679951
v -15.374494 -1.850148 -13.248509
v -15.554326 -1.850148 -13.248509
v -15.554326 -1.850148 -13.104392
v -15.554326 -1.850148 -12.529921
v -15.554326 -1.850149 -12.109433
v -15.554326 -1.850149 -6.268400
v -15.554326 -1.850149 -6.125540
v -15.374494 -1.850149 -6.125540
vt 0.375000 0.000000
vt 0.625000 0.000000
vt 0.375000 0.250000
vt 0.625000 0.250000
vt 0.375000 0.500000
vt 0.625000 0.500000
vt 0.375000 0.750000
vt 0.625000 0.750000
vt 0.375000 1.000000
vt 0.625000 1.000000
vt 0.875000 0.000000
vt 0.875000 0.250000
vt 0.125000 0.000000
vt 0.125000 0.250000
vt 0.125000 0.000000
vt 0.375000 0.000000
vt 0.375000 0.250000
vt 0.125000 0.250000
vt 0.125000 0.000000
vt 0.375000 0.000000
vt 0.375000 0.250000
vt 0.125000 0.250000
vt 0.164979 0.250000
vt 0.375000 0.460021
vt 0.625000 0.460021
vt 0.835021 0.250000
vt 0.625000 0.789979
vt 0.835021 0.000000
vt 0.164979 0.000000
vt 0.375000 0.789979
vt 0.164979 0.000000
vt 0.164979 0.000000
vt 0.164979 0.250000
vt 0.164979 0.250000
vt 0.150221 0.000000
vt 0.375000 0.775221
vt 0.625000 0.775221
vt 0.849779 0.000000
vt 0.625000 0.474779
vt 0.849779 0.250000
vt 0.150221 0.250000
vt 0.375000 0.474779
vt 0.150221 0.250000
vt 0.150221 0.250000
vt 0.150221 0.000000
vt 0.150221 0.000000
vt 0.375000 0.156166
vt 0.625000 0.156166
vt 0.835021 0.156166
vt 0.849779 0.156166
vt 0.625000 0.593834
vt 0.875000 0.156166
vt 0.125000 0.156166
vt 0.375000 0.593834
vt 0.125000 0.156166
vt 0.125000 0.156166
vt 0.150221 0.156166
vt 0.164979 0.156166
vt 0.375000 0.156166
vt 0.375000 0.156166
vt 0.375000 0.114535
vt 0.625000 0.114535
vt 0.835021 0.114535
vt 0.849779 0.114535
vt 0.625000 0.635466
vt 0.875000 0.114535
vt 0.125000 0.114535
vt 0.375000 0.635466
vt 0.125000 0.114535
vt 0.125000 0.114535
vt 0.150221 0.114535
vt 0.164979 0.114535
vt 0.375000 0.114535
vt 0.375000 0.114535
vt 0.164979 0.156166
vt 0.150221 0.156166
vt 0.150221 0.114535
vt 0.164979 0.114535
vt 0.150221 0.156166
vt 0.150221 0.114535
vt 0.164979 0.114535
vt 0.164979 0.156166
vt 0.369986 0.250000
vt 0.375000 0.255014
vt 0.625000 0.255014
vt 0.630014 0.250000
vt 0.630014 0.156166
vt 0.630014 0.114535
vt 0.625000 0.994986
vt 0.630014 0.000000
vt 0.369986 0.000000
vt 0.375000 0.994986
vt 0.369986 0.000000
vt 0.369986 0.000000
vt 0.369986 0.114535
vt 0.369986 0.156166
vt 0.369986 0.250000
vt 0.369986 0.250000
vt 0.130058 0.000000
vt 0.375000 0.755058
vt 0.625000 0.755058
vt 0.869942 0.000000
vt 0.869942 0.114535
vt 0.869942 0.156166
vt 0.625000 0.494942
vt 0.869942 0.250000
vt 0.130058 0.250000
vt 0.375000 0.494942
vt 0.130058 0.250000
vt 0.130058 0.250000
vt 0.130058 0.156166
vt 0.130058 0.114535
vt 0.130058 0.000000
vt 0.130058 0.000000
vt 0.125000 0.242546
vt 0.375000 0.507454
vt 0.625000 0.507454
vt 0.875000 0.242546
vt 0.869942 0.242546
vt 0.849779 0.242546
vt 0.835021 0.242546
vt 0.630014 0.242546
vt 0.625000 0.242546
vt 0.375000 0.242546
vt 0.375000 0.242546
vt 0.375000 0.242546
vt 0.369986 0.242546
vt 0.164979 0.242546
vt 0.150221 0.242546
vt 0.130058 0.242546
vt 0.125000 0.242546
vt 0.125000 0.242546
vt 0.375000 0.005955
vt 0.625000 0.005955
vt 0.630014 0.005955
vt 0.835021 0.005955
vt 0.849779 0.005955
vt 0.869942 0.005955
vt 0.625000 0.744045
vt 0.875000 0.005955
vt 0.125000 0.005955
vt 0.375000 0.744045
vt 0.125000 0.005955
vt 0.125000 0.005955
vt 0.130058 0.005955
vt 0.150221 0.005955
vt 0.164979 0.005955
vt 0.369986 0.005955
vt 0.375000 0.005955
vt 0.375000 0.005955
vn 0.000000 0.000000 1.000000
vn 0.000000 0.000000 1.000000
vn 0.000000 0.000000 1.000000
vn 0.000000 0.000000 1.000000
vn 0.000000 1.000000 0.000000
vn 0.000000 1.000000 0.000000
vn 0.000000 1.000000 0.000000
vn 0.000000 1.000000 0.000000
vn 0.000000 0.000000 -1.000000
vn 0.000000 0.000000 -1.000000
vn 0.000000 0.000000 -1.000000
vn 0.000000 0.000000 -1.000000
vn 0.000000 -1.000000 0.000000
vn 0.000000 -1.000000 0.000000
vn 0.000000 -1.000000 0.000000
vn 0.000000 -1.000000 0.000000
vn 1.000000 0.000000 0.000000
vn 1.000000 0.000000 0.000000
vn 1.000000 0.000000 0.000000
vn 1.000000 0.000000 0.000000
vn -1.000000 -0.000000 0.000000
vn -1.000000 0.000000 0.000000
vn -1.000000 0.000000 0.000000
vn -1.000000 -0.000000 0.000000
vn -1.000000 0.000000 0.000000
vn -1.000000 0.000000 0.000000
vn -1.000000 0.000000 0.000000
vn -1.000000 0.000000 0.000000
vn -1.000000 0.000000 0.000000
vn -1.000000 0.000000 0.000000
vn -1.000000 0.000000 0.000000
vn -1.000000 0.000000 0.000000
vn -1.000000 0.000000 0.000000
vn -1.000000 0.000000 0.000000
vn -1.000000 0.000000 0.000000
vn -1.000000 0.000000 0.000000
vn -1.000000 0.000000 0.000000
vn -1.000000 0.000000 0.000000
vn -1.000000 0.000000 0.000000
vn -1.000000 0.000000 0.000000
vn 0.000000 -1.000000 0.000000
vn 0.000000 -1.000000 0.000000
vn 0.000000 -1.000000 0.000000
vn 0.000000 -1.000000 0.000000
vn 0.000000 0.000000 1.000000
vn 0.000000 0.000000 1.000000
vn 0.000000 0.000000 1.000000
vn 0.000000 0.000000 1.000000
vn 0.000000 1.000000 -0.000000
vn 0.000000 1.000000 -0.000000
vn 0.000000 1.000000 0.000000
vn 0.000000 1.000000 0.000000
vn 0.000000 0.000000 -1.000000
vn 0.000000 0.000000 -1.000000
vn 0.000000 0.000000 -1.000000
vn 0.000000 0.000000 -1.000000
vn 0.000000 1.000000 0.000000
vn 0.000000 1.000000 0.000000
vn 1.000000 0.000000 0.000000
vn 1.000000 0.000000 0.000000
vn 0.000000 -1.000000 0.000000
vn 0.000000 -1.000000 0.000000
vn -1.000000 0.000000 0.000000
vn -1.000000 0.000000 0.000000
vn 0.000000 -1.000000 0.000000
vn 0.000000 -1.000000 0.000000
vn -1.000000 -0.000000 0.000000
vn -1.000000 -0.000000 -0.000000
vn 0.000000 1.000000 -0.000000
vn 0.000000 1.000000 -0.000000
vn -1.000000 0.000000 0.000000
vn -1.000000 0.000000 0.000000
vn 0.000000 -1.000000 0.000000
vn 0.000000 -1.000000 0.000000
vn 1.000000 0.000000 0.000000
vn 1.000000 0.000000 0.000000
vn 0.000000 1.000000 0.000000
vn 0.000000 1.000000 0.000000
vn -1.000000 0.000000 0.000000
vn -1.000000 0.000000 0.000000
vn 0.000000 1.000000 0.000000
vn 0.000000 1.000000 0.000000
vn -1.000000 0.000000 0.000000
vn -1.000000 0.000000 0.000000
vn 0.000000 -1.000000 0.000000
vn 0.000000 -1.000000 0.000000
vn -1.000000 0.000000 0.000000
vn -1.000000 0.000000 0.000000
vn 0.000000 0.000000 1.000000
vn 0.000000 0.000000 1.000000
vn 1.000000 0.000000 0.000000
vn 1.000000 0.000000 0.000000
vn 1.000000 0.000000 0.000000
vn 1.000000 0.000000 0.000000
vn 0.000000 0.000000 -1.000000
vn 0.000000 0.000000 -1.000000
vn -1.000000 0.000000 0.000000
vn -1.000000 0.000000 0.000000
vn 0.000000 0.000000 -1.000000
vn 0.000000 0.000000 -1.000000
vn -1.000000 0.000000 0.000000
vn -1.000000 0.000000 0.000000
vn -1.000000 0.000000 0.000000
vn -1.000000 0.000000 0.000000
vn -1.000000 0.000000 0.000000
vn -1.000000 0.000000 0.000000
vn -1.000000 0.000000 0.000000
vn -1.000000 0.000000 0.000000
vn 0.000000 0.000000 1.000000
vn 0.000000 0.000000 1.000000
vn -1.000000 0.000000 0.000000
vn -1.000000 0.000000 0.000000
vn 0.000000 0.000000 1.000000
vn 0.000000 0.000000 1.000000
vn 1.000000 0.000000 0.000000
vn 1.000000 0.000000 0.000000
vn 1.000000 0.000000 0.000000
vn 1.000000 0.000000 0.000000
vn 0.000000 0.000000 -1.000000
vn 0.000000 0.000000 -1.000000
vn -1.000000 0.000000 0.000000
vn -1.000000 0.000000 0.000000
vn 0.000000 0.000000 -1.000000
vn 0.000000 0.000000 -1.000000
vn -1.000000 0.000000 0.000000
vn -1.000000 0.000000 0.000000
vn -1.000000 0.000000 0.000000
vn -1.000000 0.000000 0.000000
vn 0.000000 0.000000 1.000000
vn 0.000000 0.000000 1.000000
vn -1.000000 0.000000 0.000000
vn -1.000000 0.000000 0.000000
vn 0.122913 0.986350 -0.109572
vn 0.145194 0.983043 -0.112001
vn -0.613514 0.789684 -0.000000
vn -0.613514 0.789684 -0.000000
vn -0.174095 0.000000 -0.984729
vn -0.174095 0.000000 -0.984729
vn -0.565378 0.000000 -0.824832
vn -0.565378 0.000000 -0.824832
vn 0.145195 -0.983043 -0.112001
vn 0.122913 -0.986350 -0.109572
vn -0.613514 -0.789684 0.000000
vn -0.613514 -0.789684 0.000000
vn 0.141329 0.000000 0.989963
vn 0.141329 0.000000 0.989963
vn -0.565379 0.000000 0.824831
vn -0.565379 0.000000 0.824831
vn 0.572726 0.000000 -0.819747
vn 0.572726 0.000000 -0.819747
vn 0.686345 -0.711076 -0.152646
vn 0.686345 -0.711076 -0.152646
vn 0.572728 0.000000 0.819746
vn 0.572728 0.000000 0.819746
vn 0.686345 0.711076 -0.152647
vn 0.686345 0.711076 -0.152647
vn 0.000000 1.000000 0.000000
vn 0.000000 1.000000 0.000000
vn 1.000000 0.000000 0.000000
vn 1.000000 0.000000 0.000000
vn 1.000000 0.000000 0.000000
vn 1.000000 0.000000 0.000000
vn 0.000000 -1.000000 0.000000
vn 0.000000 -1.000000 0.000000
vn -1.000000 0.000000 0.000000
vn -1.000000 0.000000 0.000000
vn 0.000000 -1.000000 0.000000
vn 0.000000 -1.000000 0.000000
vn -1.000000 0.000000 0.000000
vn -1.000000 0.000000 0.000000
vn -1.000000 0.000000 -0.000000
vn -1.000000 0.000000 -0.000001
vn 0.000000 1.000000 0.000000
vn 0.000000 1.000000 0.000000
vn -1.000000 0.000000 0.000000
vn -1.000000 0.000000 0.000000
vn 0.000000 -1.000000 0.000000
vn 0.000000 -1.000000 0.000000
vn 1.000000 0.000000 0.000000
vn 1.000000 0.000000 0.000000
vn 1.000000 0.000000 0.000000
vn 1.000000 0.000000 0.000000
vn 0.000000 1.000000 0.000000
vn 0.000000 1.000000 0.000000
vn -1.000000 0.000000 0.000000
vn -1.000000 0.000000 0.000000
vn 0.000000 1.000000 0.000000
vn 0.000000 1.000000 0.000000
vn -1.000000 0.000000 0.000000
vn -1.000000 0.000000 0.000000
vn -1.000000 0.000000 0.000000
vn -1.000000 0.000000 0.000000
vn 0.000000 -1.000000 0.000000
vn 0.000000 -1.000000 0.000000
vn -1.000000 0.000000 0.000000
vn -1.000000 0.000000 0.000000
vn 0.000000 0.000000 -1.000000
vn 0.000000 0.000000 -1.000000
vn 1.000000 0.000000 0.000000
vn 1.000000 0.000000 0.000000
vn 1.000000 0.000000 0.000000
vn 1.000000 0.000000 0.000000
vn 1.000000 0.000000 0.000000
vn 1.000000 0.000000 0.000000
vn 0.000000 0.000000 1.000000
vn 0.000000 0.000000 1.000000
vn -1.000000 0.000000 0.000000
vn -1.000000 0.000000 0.000000
vn 0.000000 0.000000 1.000000
vn 0.000000 0.000000 1.000000
vn -1.000000 0.000000 -0.000000
vn -1.000000 0.000000 -0.000001
vn -1.000000 0.000000 0.000000
vn -1.000000 0.000000 0.000000
vn -1.000000 0.000000 0.000000
vn -1.000000 0.000000 0.000000
vn 0.000000 0.000000 -1.000000
vn 0.000000 0.000000 -1.000000
vn -1.000000 0.000000 0.000000
vn -1.000000 0.000000 0.000000
vn 0.000000 0.000000 1.000000
vn 0.000000 0.000000 1.000000
vn 1.000000 0.000000 0.000000
vn 1.000000 0.000000 0.000000
vn 1.000000 0.000000 0.000000
vn 1.000000 0.000000 0.000000
vn 1.000000 0.000000 0.000000
vn 1.000000 0.000000 0.000000
vn 0.000000 0.000000 -1.000000
vn 0.000000 0.000000 -1.000000
vn -1.000000 0.000000 0.000000
vn -1.000000 0.000000 0.000000
vn 0.000000 0.000000 -1.000000
vn 0.000000 0.000000 -1.000000
vn -1.000000 0.000000 0.000000
vn -1.000000 0.000000 0.000000
vn -1.000000 0.000000 0.000000
vn -1.000000 0.000000 0.000000
vn -1.000000 0.000000 0.000000
vn -1.000000 0.000000 0.000000
vn 0.000000 0.000000 1.000000
vn 0.000000 0.000000 1.000000
vn -1.000000 0.000000 0.000000
vn -1.000000 0.000000 0.000000
s 1
g pCube11
usemtl initialShadingGroup
f 33/47/1 34/48/2 95/123/3 96/124/4
s 2
f 17/24/5 18/25/6 27/39/7 28/42/8
s 3
f 89/116/9 90/117/10 37/51/11 38/54/12
s 4
f 25/36/13 26/37/14 19/27/15 20/30/16
s 5
f 92/120/17 93/121/18 35/49/19 36/50/20
s 6
f 100/128/21 101/129/22 41/57/23 42/58/24
s 7
f 32/46/25 25/35/26 20/29/27 21/31/28
s 8
f 44/60/29 33/47/30 96/124/31 97/125/32
s 9
f 24/34/33 17/23/34 28/41/35 29/43/36
s 10
f 104/132/37 89/115/38 38/53/39 39/55/40
s 11
f 31/45/41 32/46/42 21/31/43 22/32/44
s 12
f 43/59/45 44/60/46 97/125/47 98/126/48
s 13
f 23/33/49 24/34/50 29/43/51 30/44/52
s 14
f 103/131/53 104/132/54 39/55/55 40/56/56
s 2
f 65/84/57 66/85/58 18/25/6 17/24/5
s 5
f 93/121/18 94/122/59 67/87/60 35/49/19
s 4
f 20/30/16 19/27/15 69/89/61 70/92/62
s 7
f 21/31/28 20/29/27 70/91/63 71/93/64
s 11
f 22/32/44 21/31/43 71/93/65 72/94/66
s 6
f 99/127/67 100/128/21 42/58/24 74/96/68
s 13
f 75/97/69 76/98/70 24/34/50 23/33/49
s 9
f 76/98/71 65/83/72 17/23/34 24/34/33
s 4
f 77/100/73 78/101/74 26/37/14 25/36/13
s 5
f 91/119/75 92/120/17 36/50/20 80/104/76
s 2
f 28/42/8 27/39/7 81/105/77 82/108/78
s 9
f 29/43/36 28/41/35 82/107/79 83/109/80
s 13
f 30/44/52 29/43/51 83/109/81 84/110/82
s 6
f 101/129/22 102/130/83 85/111/84 41/57/23
s 11
f 87/113/85 88/114/86 32/46/42 31/45/41
s 7
f 88/114/87 77/99/88 25/35/26 32/46/25
s 1
f 45/61/89 46/62/90 34/48/2 33/47/1
s 5
f 67/87/60 68/88/91 47/63/92 35/49/19
f 36/50/20 35/49/19 47/63/92 48/64/93
f 79/103/94 80/104/76 36/50/20 48/64/93
s 3
f 38/54/12 37/51/11 49/65/95 50/68/96
s 10
f 39/55/40 38/53/39 50/67/97 51/69/98
s 14
f 40/56/56 39/55/55 51/69/99 52/70/100
s 6
f 85/111/84 86/112/101 53/71/102 41/57/23
s off
f 58/75/103 57/76/104 59/77/105 60/78/106
s 6
f 73/95/107 74/96/68 42/58/24 54/72/108
s 12
f 55/73/109 56/74/110 44/60/46 43/59/45
s 8
f 56/74/111 45/61/112 33/47/30 44/60/29
s 1
f 105/133/113 106/134/114 46/62/90 45/61/89
s 5
f 68/88/91 107/135/115 108/136/116 47/63/92
f 48/64/93 47/63/92 108/136/116 109/137/117
f 109/137/117 110/138/118 79/103/94 48/64/93
s 3
f 50/68/96 49/65/95 111/139/119 112/142/120
s 10
f 51/69/98 50/67/97 112/141/121 113/143/122
s 14
f 52/70/100 51/69/99 113/143/123 114/144/124
s 6
f 86/112/101 115/145/125 116/146/126 53/71/102
f 54/72/108 53/71/102 116/146/126 117/147/127
f 117/147/127 118/148/128 73/95/107 54/72/108
s 12
f 119/149/129 120/150/130 56/74/110 55/73/109
s 8
f 120/150/131 105/133/132 45/61/112 56/74/111
s 15
f 64/82/133 61/79/134 57/76/135 58/75/136
s 16
f 61/79/137 62/80/138 59/77/139 57/76/140
s 17
f 62/80/141 63/81/142 60/78/143 59/77/144
s 18
f 63/81/145 64/82/146 58/75/147 60/78/148
s 16
f 41/57/149 53/71/150 62/80/138 61/79/137
s 17
f 53/71/151 54/72/152 63/81/142 62/80/141
s 18
f 54/72/153 42/58/154 64/82/146 63/81/145
s 15
f 42/58/155 41/57/156 61/79/134 64/82/133
s 2
f 3/3/157 4/4/158 66/85/58 65/84/57
s 5
f 34/48/159 67/87/60 94/122/59 95/123/160
f 46/62/161 68/88/91 67/87/60 34/48/159
f 106/134/162 107/135/115 68/88/91 46/62/161
s 4
f 70/92/62 69/89/61 2/10/163 1/9/164
s 7
f 71/93/64 70/91/63 1/1/165 10/16/166
s 11
f 72/94/66 71/93/65 10/16/167 14/20/168
s 6
f 55/73/169 73/95/107 118/148/128 119/149/170
f 43/59/171 74/96/68 73/95/107 55/73/169
f 98/126/172 99/127/67 74/96/68 43/59/171
s 13
f 11/17/173 76/98/70 75/97/69 15/21/174
s 9
f 3/3/175 65/83/72 76/98/71 11/17/176
s 4
f 7/7/177 8/8/178 78/101/74 77/100/73
s 5
f 49/66/179 79/103/94 110/138/118 111/140/180
f 37/52/181 80/104/76 79/103/94 49/66/179
f 90/118/182 91/119/75 80/104/76 37/52/181
s 2
f 82/108/78 81/105/77 6/6/183 5/5/184
s 9
f 83/109/80 82/107/79 5/14/185 12/18/186
s 13
f 84/110/82 83/109/81 12/18/187 16/22/188
s 6
f 40/56/189 85/111/84 102/130/83 103/131/190
f 52/70/191 86/112/101 85/111/84 40/56/189
f 114/144/192 115/145/125 86/112/101 52/70/191
s 11
f 9/15/193 88/114/86 87/113/85 13/19/194
s 7
f 7/13/195 77/99/88 88/114/87 9/15/196
s 3
f 5/5/197 6/6/198 90/117/10 89/116/9
s 5
f 81/106/199 91/119/75 90/118/182 6/12/200
f 27/40/201 92/120/17 91/119/75 81/106/199
f 18/26/202 93/121/18 92/120/17 27/40/201
f 66/86/203 94/122/59 93/121/18 18/26/202
f 95/123/160 94/122/59 66/86/203 4/4/204
s 1
f 96/124/4 95/123/3 4/4/205 3/3/206
s 8
f 97/125/32 96/124/31 3/3/207 11/17/208
s 12
f 98/126/48 97/125/47 11/17/209 15/21/210
s 6
f 75/97/211 99/127/67 98/126/172 15/21/212
f 23/33/213 100/128/21 99/127/67 75/97/211
f 30/44/214 101/129/22 100/128/21 23/33/213
f 84/110/215 102/130/83 101/129/22 30/44/214
f 103/131/190 102/130/83 84/110/215 16/22/216
s 14
f 12/18/217 104/132/54 103/131/53 16/22/218
s 10
f 5/14/219 89/115/38 104/132/37 12/18/220
s 1
f 1/1/221 2/2/222 106/134/114 105/133/113
s 5
f 2/2/223 69/90/224 107/135/115 106/134/162
f 108/136/116 107/135/115 69/90/224 19/28/225
f 109/137/117 108/136/116 19/28/225 26/38/226
f 78/102/227 110/138/118 109/137/117 26/38/226
f 111/140/180 110/138/118 78/102/227 8/11/228
s 3
f 112/142/120 111/139/119 8/8/229 7/7/230
s 10
f 113/143/122 112/141/121 7/13/231 9/15/232
s 14
f 114/144/124 113/143/123 9/15/233 13/19/234
s 6
f 13/19/235 87/113/236 115/145/125 114/144/192
f 116/146/126 115/145/125 87/113/236 31/45/237
f 117/147/127 116/146/126 31/45/237 22/32/238
f 72/94/239 118/148/128 117/147/127 22/32/238
f 119/149/170 118/148/128 72/94/239 14/20/240
s 12
f 10/16/241 120/150/130 119/149/129 14/20/242
s 8
f 1/1/243 105/133/132 120/150/131 10/16/244
