# This file uses centimeters as units for non-parametric coordinates.

mtllib Hiding.mtl
g default
v -3.307165 -0.439994 -0.464905
v 3.307165 -0.439994 -0.464905
v -3.307165 8.941351 -0.464905
v 3.307165 8.941351 -0.464905
v -3.307165 8.941351 -3.021927
v 3.307165 8.941351 -3.021927
v -3.307165 -0.439994 -3.021927
v 3.307165 -0.439994 -3.021927
v 0.007408 -0.439994 -0.464905
v 0.007408 -0.439994 -3.021927
v 0.007408 8.941351 -3.021927
v 0.007408 8.941351 -0.464905
v -3.307165 8.471430 -0.464905
v 0.007408 8.471426 -0.464905
v 3.307165 8.471430 -0.464905
v 3.307165 8.471426 -3.021927
v 0.007408 8.471430 -3.021927
v -3.307165 8.471426 -3.021927
v -3.307165 -0.100031 -0.464905
v 0.007408 -0.100033 -0.464905
v 3.307165 -0.100031 -0.464905
v 3.307165 -0.100033 -3.021927
v 0.007408 -0.100031 -3.021927
v -3.307165 -0.100033 -3.021927
v -2.926775 -0.439994 -0.464905
v -2.926775 -0.439994 -3.021927
v -2.926775 -0.100033 -3.021927
v -2.926775 8.471426 -3.021927
v -2.926775 8.941351 -3.021927
v -2.926775 8.941351 -0.464905
v -2.926775 8.471429 -0.464905
v -2.926775 -0.100031 -0.464905
v 2.886522 -0.439994 -0.464905
v 2.886522 -0.100032 -0.464905
v 2.886522 8.471429 -0.464905
v 2.886522 8.941351 -0.464905
v 2.886522 8.941351 -3.021927
v 2.886522 8.471426 -3.021927
v 2.886522 -0.100033 -3.021927
v 2.886522 -0.439994 -3.021927
v -2.926775 8.471429 -2.796255
v -2.926775 -0.100031 -2.796255
v 0.007408 -0.100033 -2.796255
v 0.007408 8.471426 -2.796255
v 2.886522 -0.100032 -2.796255
v 2.886522 8.471429 -2.796255
vt 0.375000 0.000000
vt 0.625000 0.000000
vt 0.375000 0.250000
vt 0.625000 0.250000
vt 0.375000 0.500000
vt 0.625000 0.500000
vt 0.375000 0.750000
vt 0.625000 0.750000
vt 0.375000 1.000000
vt 0.625000 1.000000
vt 0.875000 0.000000
vt 0.875000 0.250000
vt 0.125000 0.000000
vt 0.125000 0.250000
vt 0.500280 0.000000
vt 0.500280 1.000000
vt 0.500280 0.750000
vt 0.500280 0.500000
vt 0.500280 0.250000
vt 0.375000 0.237477
vt 0.500280 0.237477
vt 0.625000 0.237477
vt 0.625000 0.512523
vt 0.875000 0.237477
vt 0.500280 0.512523
vt 0.125000 0.237477
vt 0.375000 0.512523
vt 0.375000 0.009060
vt 0.500280 0.009060
vt 0.625000 0.009060
vt 0.625000 0.740940
vt 0.875000 0.009060
vt 0.500280 0.740940
vt 0.125000 0.009060
vt 0.375000 0.740940
vt 0.389378 0.000000
vt 0.389378 1.000000
vt 0.389378 0.750000
vt 0.389378 0.740940
vt 0.389378 0.512523
vt 0.389378 0.500000
vt 0.389378 0.250000
vt 0.389378 0.237477
vt 0.389378 0.009060
vt 0.609101 0.000000
vt 0.609101 1.000000
vt 0.609101 0.009060
vt 0.609101 0.237477
vt 0.609101 0.250000
vt 0.609101 0.500000
vt 0.609101 0.512523
vt 0.609101 0.740940
vt 0.609101 0.750000
vt 0.389378 0.237477
vt 0.389378 0.009060
vt 0.500280 0.009060
vt 0.500280 0.237477
vt 0.609101 0.009060
vt 0.609101 0.237477
vn 0.000000 0.000000 1.000000
vn 0.000000 0.000000 1.000000
vn 0.000000 0.000000 1.000000
vn 0.000000 0.000000 1.000000
vn 0.000000 1.000000 0.000000
vn 0.000000 1.000000 0.000000
vn 0.000000 1.000000 0.000000
vn 0.000000 1.000000 0.000000
vn 0.000000 0.000000 -1.000000
vn 0.000000 0.000000 -1.000000
vn 0.000000 0.000000 -1.000000
vn 0.000000 0.000000 -1.000000
vn 0.000000 -1.000000 0.000000
vn 0.000000 -1.000000 0.000000
vn 0.000000 -1.000000 0.000000
vn 0.000000 -1.000000 0.000000
vn 1.000000 0.000000 0.000000
vn 1.000000 0.000000 0.000000
vn 1.000000 0.000000 0.000000
vn 1.000000 0.000000 0.000000
vn -1.000000 0.000000 0.000000
vn -1.000000 0.000000 0.000000
vn -1.000000 0.000000 0.000000
vn -1.000000 0.000000 0.000000
vn 0.000000 -1.000000 0.000000
vn 0.000000 -1.000000 0.000000
vn 0.000000 0.000000 -1.000000
vn 0.000000 0.000000 -1.000000
vn 0.000000 1.000000 0.000000
vn 0.000000 1.000000 0.000000
vn 0.000000 0.000000 1.000000
vn 0.000000 0.000000 1.000000
vn 0.000000 0.000000 1.000000
vn 0.000000 0.000000 1.000000
vn -0.000000 0.000000 1.000000
vn -0.000000 0.000000 1.000000
vn -0.000000 0.000000 1.000000
vn -0.000000 0.000000 1.000000
vn 1.000000 0.000000 0.000000
vn 1.000000 0.000000 0.000000
vn 0.000000 0.000000 -1.000000
vn 0.000000 0.000000 -1.000000
vn 0.000000 0.000000 -1.000000
vn -1.000000 0.000000 0.000000
vn -1.000000 0.000000 0.000000
vn 0.000000 0.000000 1.000000
vn 0.000000 0.000000 1.000000
vn 0.000000 0.000000 1.000000
vn 0.000000 0.000000 1.000000
vn 0.000000 0.000000 1.000000
vn 0.000000 0.000000 1.000000
vn 1.000000 0.000000 0.000000
vn 1.000000 0.000000 0.000000
vn 0.000000 0.000000 -1.000000
vn 0.000000 0.000000 -1.000000
vn 0.000000 0.000000 -1.000000
vn -1.000000 0.000000 0.000000
vn -1.000000 0.000000 0.000000
vn 0.000000 -1.000000 0.000000
vn 0.000000 -1.000000 0.000000
vn 0.000000 0.000000 -1.000000
vn 0.000000 0.000000 -1.000000
vn 0.000000 0.000000 -1.000000
vn 0.000000 0.000000 -1.000000
vn 0.000000 1.000000 0.000000
vn 0.000000 1.000000 0.000000
vn 0.000000 0.000000 1.000000
vn 0.000000 0.000000 1.000000
vn 0.000000 0.000000 1.000000
vn 0.000000 0.000000 1.000000
vn 0.000000 0.000000 1.000000
vn 0.000000 0.000000 1.000000
vn 0.000000 0.000000 1.000000
vn 0.000000 0.000000 1.000000
vn 0.000000 1.000000 0.000000
vn 0.000000 1.000000 0.000000
vn 0.000000 0.000000 -1.000000
vn 0.000000 0.000000 -1.000000
vn 0.000000 0.000000 -1.000000
vn 0.000000 0.000000 -1.000000
vn 0.000000 -1.000000 0.000000
vn 0.000000 -1.000000 0.000000
vn 1.000000 0.000000 0.000000
vn 1.000000 0.000000 0.000000
vn 1.000000 0.000000 0.000000
vn 1.000000 0.000000 0.000000
vn 0.000000 1.000000 0.000000
vn 0.000000 1.000000 0.000000
vn 0.000000 1.000000 0.000000
vn 0.000000 1.000000 0.000000
vn -0.000000 -1.000000 -0.000000
vn -0.000001 -1.000000 -0.000000
vn -0.000001 -1.000000 -0.000000
vn -0.000000 -1.000000 -0.000000
vn -1.000000 0.000000 0.000000
vn -1.000000 0.000000 0.000000
vn -1.000000 0.000000 0.000000
vn -1.000000 0.000000 0.000000
vn 0.000001 -1.000000 0.000000
vn 0.000001 -1.000000 0.000000
vn -0.000000 1.000000 0.000000
vn -0.000000 1.000000 0.000000
s 1
g pCube1
usemtl initialShadingGroup
f 12/19/1 14/21/2 35/48/3 36/49/4
s 2
f 11/18/5 12/19/6 36/49/7 37/50/8
s 3
f 37/50/9 38/51/10 17/25/11 11/18/12
s 4
f 9/16/13 10/17/14 40/53/15 33/46/16
s 5
f 15/22/17 16/24/18 6/12/19 4/4/20
s 6
f 18/26/21 13/20/22 3/3/23 5/14/24
s 4
f 25/37/25 26/38/26 10/17/14 9/16/13
s 3
f 28/40/27 29/41/28 11/18/12 17/25/11
s 2
f 29/41/29 30/42/30 12/19/6 11/18/5
s 1
f 30/42/31 31/43/32 14/21/2 12/19/1
s 7
f 41/54/33 42/55/34 43/56/35 44/57/36
f 45/58/37 46/59/38 44/57/36 43/56/35
s 5
f 21/30/39 22/32/40 16/24/18 15/22/17
s 3
f 38/51/10 39/52/41 23/33/42 17/25/11
f 27/39/43 28/40/27 17/25/11 23/33/42
s 6
f 24/34/44 19/28/45 13/20/22 18/26/21
s 1
f 32/44/46 25/36/47 9/15/48 20/29/49
f 33/45/50 34/47/51 20/29/49 9/15/48
s 5
f 2/2/52 8/11/53 22/32/40 21/30/39
s 3
f 10/17/54 23/33/42 39/52/41 40/53/55
f 26/38/56 27/39/43 23/33/42 10/17/54
s 6
f 7/13/57 1/1/58 19/28/45 24/34/44
s 4
f 7/7/59 26/38/26 25/37/25 1/9/60
s 3
f 24/35/61 27/39/43 26/38/56 7/7/62
f 18/27/63 28/40/27 27/39/43 24/35/61
f 5/5/64 29/41/28 28/40/27 18/27/63
s 2
f 3/3/65 30/42/30 29/41/29 5/5/66
s 1
f 13/20/67 31/43/32 30/42/31 3/3/68
f 19/28/69 32/44/46 31/43/32 13/20/67
f 1/1/70 25/36/47 32/44/46 19/28/69
f 21/30/71 34/47/51 33/45/50 2/2/72
f 15/22/73 35/48/3 34/47/51 21/30/71
f 36/49/4 35/48/3 15/22/73 4/4/74
s 2
f 37/50/8 36/49/7 4/4/75 6/6/76
s 3
f 16/23/77 38/51/10 37/50/9 6/6/78
f 22/31/79 39/52/41 38/51/10 16/23/77
f 40/53/55 39/52/41 22/31/79 8/8/80
s 4
f 33/46/16 40/53/15 8/8/81 2/10/82
s off
f 31/43/83 32/44/84 42/55/85 41/54/86
s 9
f 32/44/87 20/29/88 43/56/89 42/55/90
s 10
f 14/21/91 31/43/92 41/54/93 44/57/94
s off
f 34/47/95 35/48/96 46/59/97 45/58/98
s 10
f 35/48/99 14/21/91 44/57/94 46/59/100
s 9
f 20/29/88 34/47/101 45/58/102 43/56/89
