# This file uses centimeters as units for non-parametric coordinates.

mtllib Spoon.mtl
g default
v -2.786233 -2.630192 0.164313
v -1.982542 -2.630192 0.164313
v -2.786233 1.728342 0.164313
v -1.982542 1.728342 0.164313
v -2.786233 1.728342 -0.164313
v -1.982542 1.728342 -0.164313
v -2.786233 -2.630192 -0.164313
v -1.982542 -2.630192 -0.164313
v -2.786233 -2.391972 0.164313
v -1.982542 -2.391972 0.164313
v -1.982542 -2.391972 -0.164313
v -2.786233 -2.391972 -0.164313
v -2.656189 1.347145 -0.164313
v -2.112586 1.347145 -0.164313
v -2.112586 1.347147 0.164313
v -2.656189 1.347147 0.164313
v -3.777810 2.828240 0.671558
v -0.990965 2.828240 0.671558
v -0.990965 2.828240 0.064748
v -3.777810 2.828240 0.064748
v -2.807366 4.059632 0.164313
v -1.961410 4.059632 0.164313
v -1.961410 4.059632 -0.164313
v -2.807366 4.059632 -0.164313
v -3.309033 3.681773 0.365230
v -1.459743 3.681773 0.365230
v -1.459743 3.681773 0.036604
v -3.309033 3.681773 0.036604
v -3.372728 2.074213 0.345209
v -1.396047 2.074213 0.345209
v -1.396047 2.074213 0.016584
v -3.372728 2.074213 0.016584
v -2.073709 -2.630192 0.164313
v -2.073709 -2.630192 -0.164313
v -2.073709 -2.391972 -0.164313
v -2.174250 1.347145 -0.164313
v -2.073709 1.728342 -0.164313
v -1.832640 2.074213 0.016584
v -1.307091 2.828240 0.510198
v -1.827144 3.681773 0.036604
v -2.057371 4.059632 -0.164313
v -2.057371 4.059632 0.164313
v -1.827144 3.681773 0.365230
v -1.307091 2.828240 0.671558
v -1.832640 2.074213 0.345209
v -2.073709 1.728342 0.164313
v -2.174250 1.347147 0.164313
v -2.073709 -2.391972 0.164313
v -2.667790 -2.630192 0.164313
v -2.667790 -2.630192 -0.164313
v -2.667790 -2.391972 -0.164313
v -2.576076 1.347145 -0.164313
v -2.667790 1.728342 -0.164313
v -2.887693 2.074213 0.016584
v -3.367100 2.828240 0.510198
v -2.892707 3.681773 0.036604
v -2.682693 4.059632 -0.164313
v -2.682693 4.059632 0.164313
v -2.892707 3.681773 0.365230
v -3.367100 2.828240 0.671558
v -2.887693 2.074213 0.345209
v -2.667790 1.728342 0.164313
v -2.576076 1.347147 0.164313
v -2.667790 -2.391972 0.164313
v -2.562111 0.219153 -0.217386
v -2.509727 0.219153 -0.217386
v -2.246984 0.219153 -0.217386
v -2.206664 0.219153 -0.217386
v -2.206664 0.219152 -0.519513
v -2.246984 0.219152 -0.519513
v -2.509727 0.219152 -0.519513
v -2.562111 0.219152 -0.519513
v -2.647144 -1.338440 -0.217386
v -2.569697 -1.338440 -0.217386
v -2.181243 -1.338440 -0.217386
v -2.121631 -1.338440 -0.217386
v -2.121631 -1.338441 -0.519513
v -2.181243 -1.338441 -0.519513
v -2.569697 -1.338441 -0.519513
v -2.647144 -1.338441 -0.519513
vt 0.375000 0.000000
vt 0.625000 0.000000
vt 0.375000 0.250000
vt 0.625000 0.250000
vt 0.375000 0.500000
vt 0.625000 0.500000
vt 0.375000 0.750000
vt 0.625000 0.750000
vt 0.375000 1.000000
vt 0.625000 1.000000
vt 0.875000 0.000000
vt 0.875000 0.250000
vt 0.125000 0.000000
vt 0.125000 0.250000
vt 0.375000 0.013664
vt 0.625000 0.013664
vt 0.625000 0.736336
vt 0.875000 0.013664
vt 0.125000 0.013664
vt 0.375000 0.736336
vt 0.125000 0.228135
vt 0.375000 0.521865
vt 0.625000 0.521865
vt 0.875000 0.228135
vt 0.625000 0.228135
vt 0.375000 0.228135
vt 0.375000 0.250000
vt 0.625000 0.250000
vt 0.625000 0.500000
vt 0.375000 0.500000
vt 0.375000 0.250000
vt 0.625000 0.250000
vt 0.625000 0.500000
vt 0.375000 0.500000
vt 0.375000 0.250000
vt 0.625000 0.250000
vt 0.625000 0.500000
vt 0.375000 0.500000
vt 0.375000 0.250000
vt 0.625000 0.250000
vt 0.625000 0.500000
vt 0.375000 0.500000
vt 0.596641 0.000000
vt 0.596641 1.000000
vt 0.596641 0.750000
vt 0.596641 0.736336
vt 0.596641 0.521865
vt 0.596641 0.500000
vt 0.596641 0.500000
vt 0.596641 0.500000
vt 0.596641 0.500000
vt 0.596641 0.500000
vt 0.596641 0.250000
vt 0.596641 0.250000
vt 0.596641 0.250000
vt 0.596641 0.250000
vt 0.596641 0.250000
vt 0.596641 0.228135
vt 0.596641 0.013664
vt 0.411844 0.000000
vt 0.411844 1.000000
vt 0.411844 0.750000
vt 0.411844 0.736336
vt 0.411844 0.521865
vt 0.411844 0.500000
vt 0.411844 0.500000
vt 0.411844 0.500000
vt 0.411844 0.500000
vt 0.411844 0.500000
vt 0.411844 0.250000
vt 0.411844 0.250000
vt 0.411844 0.250000
vt 0.411844 0.250000
vt 0.411844 0.250000
vt 0.411844 0.228135
vt 0.411844 0.013664
vt 0.375000 0.167353
vt 0.411844 0.167353
vt 0.596641 0.167353
vt 0.625000 0.167353
vt 0.625000 0.582647
vt 0.875000 0.167353
vt 0.596641 0.582647
vt 0.411844 0.582647
vt 0.125000 0.167353
vt 0.375000 0.582647
vt 0.375000 0.070175
vt 0.411844 0.070175
vt 0.596641 0.070175
vt 0.625000 0.070175
vt 0.625000 0.679825
vt 0.875000 0.070175
vt 0.596641 0.679825
vt 0.411844 0.679825
vt 0.125000 0.070175
vt 0.375000 0.679825
vn -0.000000 -0.188733 0.982028
vn 0.000000 -0.137142 0.990551
vn 0.000000 -0.133767 0.991013
vn -0.000000 -0.174458 0.984665
vn 0.000000 1.000000 0.000000
vn 0.000000 1.000000 0.000000
vn 0.000000 1.000000 0.000000
vn 0.000000 1.000000 0.000000
vn 0.000001 0.124934 -0.992165
vn -0.000000 0.127962 -0.991779
vn -0.000000 0.175860 -0.984415
vn 0.000000 0.162326 -0.986737
vn -0.000000 -1.000000 0.000000
vn -0.000000 -1.000000 0.000000
vn 0.000000 -1.000000 0.000000
vn 0.000000 -1.000000 0.000000
vn 0.999667 -0.025812 0.000000
vn 0.999225 0.039374 -0.000000
vn 0.992293 -0.123912 0.000001
vn 0.967067 -0.254524 0.000001
vn -0.999225 0.039374 -0.000000
vn -0.999667 -0.025812 0.000000
vn -0.967067 -0.254524 0.000001
vn -0.992293 -0.123912 0.000001
vn 0.000000 0.270670 0.962672
vn 0.000000 0.000000 1.000000
vn 0.000000 0.000000 1.000000
vn 0.000000 0.268232 0.963354
vn 1.000000 0.000000 0.000000
vn 1.000000 0.000000 0.000000
vn 0.993230 0.116165 -0.000000
vn 0.998583 0.053223 -0.000000
vn 0.000000 0.000000 -1.000000
vn -0.000000 -0.252918 -0.967488
vn -0.000001 -0.250434 -0.968134
vn 0.000000 0.000000 -1.000000
vn -1.000000 0.000000 0.000000
vn -1.000000 0.000000 0.000000
vn -0.998583 0.053223 -0.000000
vn -0.993230 0.116165 -0.000000
vn -0.000000 0.379313 -0.925268
vn -0.000000 0.441309 -0.897355
vn 0.946441 -0.322877 0.000001
vn 0.946441 -0.322877 0.000001
vn 0.000000 -0.379314 0.925268
vn 0.000000 -0.441308 0.897356
vn -0.946441 -0.322877 0.000001
vn -0.946441 -0.322877 0.000001
vn -0.000000 -0.020565 0.999789
vn 0.000000 -0.407596 0.913162
vn 0.000000 -0.403679 0.914901
vn 0.000000 -0.047419 0.998875
vn 0.836651 -0.547736 0.000000
vn 0.725978 -0.687717 0.000000
vn 0.880926 -0.473255 0.000000
vn 0.880926 -0.473255 0.000000
vn -0.408857 0.528347 -0.744101
vn -0.052114 0.539065 -0.840650
vn -0.076264 0.013620 -0.996995
vn -0.527046 0.039966 -0.848897
vn -0.725978 -0.687718 0.000000
vn -0.836651 -0.547736 0.000000
vn -0.880926 -0.473255 0.000000
vn -0.880926 -0.473255 0.000000
vn -0.000000 0.469482 0.882942
vn -0.000000 0.358444 0.933551
vn 0.000000 0.352008 0.935997
vn 0.000000 0.469483 0.882942
vn 0.850561 0.525877 0.000000
vn 0.776469 0.630155 0.000000
vn 0.601638 0.798769 0.000000
vn 0.601638 0.798769 0.000000
vn -0.448410 -0.492673 -0.745789
vn -0.054028 -0.489502 -0.870327
vn 0.000000 -0.469482 -0.882942
vn 0.000000 -0.469483 -0.882942
vn -0.776470 0.630155 0.000000
vn -0.850561 0.525876 0.000000
vn -0.601638 0.798769 0.000000
vn -0.601638 0.798769 0.000000
vn 0.876504 0.481394 0.000000
vn 0.876504 0.481394 0.000000
vn -0.876504 0.481394 0.000000
vn -0.876504 0.481394 0.000000
vn 0.507973 -0.861373 0.000000
vn 0.507973 -0.861373 0.000000
vn -0.507973 -0.861373 0.000000
vn -0.507973 -0.861373 0.000000
vn 0.000000 -1.000000 0.000000
vn 0.000000 -1.000000 0.000000
vn 0.000000 0.000000 -1.000000
vn 0.000000 -0.253450 -0.967348
vn -0.000000 0.128695 -0.991684
vn 0.000000 0.179414 -0.983774
vn 0.000000 0.369757 -0.929129
vn 0.052619 0.533828 -0.843954
vn 0.076581 0.013394 -0.996973
vn 0.054585 -0.484830 -0.872903
vn -0.000000 -0.469482 -0.882942
vn 0.000000 1.000000 0.000000
vn 0.000000 1.000000 0.000000
vn -0.000000 0.469482 0.882942
vn -0.000000 0.359517 0.933139
vn 0.000000 -0.019552 0.999809
vn -0.000000 -0.408126 0.912926
vn 0.000000 -0.369757 0.929128
vn 0.000000 -0.192487 0.981300
vn -0.000000 -0.137959 0.990438
vn 0.000000 0.271194 0.962525
vn 0.000000 0.000000 1.000000
vn 0.000001 -1.000000 0.000000
vn 0.000001 -1.000000 0.000000
vn 0.000000 -0.250434 -0.968134
vn 0.000000 0.000000 -1.000000
vn 0.000000 0.162326 -0.986737
vn -0.000000 0.124934 -0.992165
vn 0.000000 0.438435 -0.898763
vn 0.363037 0.503450 -0.784055
vn 0.459230 0.039232 -0.887450
vn 0.394800 -0.465123 -0.792334
vn -0.000000 -0.469482 -0.882942
vn 0.000000 1.000000 0.000000
vn 0.000000 1.000000 0.000000
vn 0.000000 0.351561 0.936165
vn 0.000000 0.469482 0.882942
vn 0.000000 -0.044142 0.999025
vn -0.000000 -0.403450 0.915002
vn -0.000000 -0.438435 0.898763
vn 0.000000 -0.174458 0.984665
vn -0.000000 -0.133767 0.991013
vn 0.000000 0.000000 1.000000
vn 0.000000 0.268232 0.963354
vn -0.000000 0.204666 0.978832
vn -0.000000 0.191508 0.981491
vn 0.000000 0.193890 0.981023
vn 0.000000 0.204666 0.978832
vn 0.995198 0.097877 -0.000000
vn 0.998026 0.062804 -0.000000
vn -0.000000 -0.191454 -0.981502
vn 0.000000 -0.181166 -0.983453
vn -0.000000 -0.178888 -0.983869
vn -0.000000 -0.191454 -0.981502
vn -0.998026 0.062804 -0.000000
vn -0.995199 0.097877 -0.000000
s 1
g pCube2
usemtl initialShadingGroup
f 47/58/1 67/79/2 68/80/3 15/25/4
s 2
f 41/52/5 42/53/6 22/32/7 23/33/8
s 3
f 69/81/9 70/83/10 36/47/11 14/23/12
s 4
f 33/44/13 34/45/14 8/8/15 2/10/16
s 5
f 68/80/17 69/82/18 14/24/19 15/25/20
s 6
f 72/85/21 65/77/22 16/26/23 13/21/24
s 1
f 48/59/25 33/43/26 2/2/27 10/16/28
s 5
f 2/2/29 8/11/30 11/18/31 10/16/32
s 3
f 34/45/33 35/46/34 11/17/35 8/8/36
s 6
f 7/13/37 1/1/38 9/15/39 12/19/40
s 3
f 36/47/11 37/48/41 6/6/42 14/23/12
s 5
f 15/25/20 14/24/19 6/12/43 4/4/44
s 1
f 46/57/45 47/58/1 15/25/4 4/4/46
s 6
f 13/21/24 16/26/23 3/3/47 5/14/48
s 1
f 44/55/49 45/56/50 30/40/51 18/28/52
s 12
f 30/40/53 31/41/54 19/29/55 18/28/56
s 3
f 31/41/57 38/49/58 39/50/59 19/29/60
s 13
f 32/42/61 29/39/62 17/27/63 20/30/64
s 1
f 42/53/65 43/54/66 26/36/67 22/32/68
s 15
f 26/36/69 27/37/70 23/33/71 22/32/72
s 3
f 27/37/73 40/51/74 41/52/75 23/33/76
s 16
f 28/38/77 25/35/78 21/31/79 24/34/80
s 1
f 43/54/66 44/55/49 18/28/52 26/36/67
s 15
f 18/28/81 19/29/82 27/37/70 26/36/69
s 3
f 19/29/60 39/50/59 40/51/74 27/37/73
s 16
f 20/30/83 17/27/84 25/35/78 28/38/77
s 1
f 45/56/50 46/57/45 4/4/46 30/40/51
s 12
f 4/4/85 6/6/86 31/41/54 30/40/53
s 3
f 6/6/42 37/48/41 38/49/58 31/41/57
s 13
f 5/5/87 3/3/88 29/39/62 32/42/61
s 4
f 49/61/89 50/62/90 34/45/14 33/44/13
s 3
f 50/62/91 51/63/92 35/46/34 34/45/33
f 70/83/10 71/84/93 52/64/94 36/47/11
f 52/64/94 53/65/95 37/48/41 36/47/11
f 38/49/58 37/48/41 53/65/95 54/66/96
f 39/50/59 38/49/58 54/66/96 55/67/97
f 40/51/74 39/50/59 55/67/97 56/68/98
f 41/52/75 40/51/74 56/68/98 57/69/99
s 2
f 57/69/100 58/70/101 42/53/6 41/52/5
s 1
f 58/70/102 59/71/103 43/54/66 42/53/65
f 59/71/103 60/72/104 44/55/49 43/54/66
f 60/72/104 61/73/105 45/56/50 44/55/49
f 61/73/105 62/74/106 46/57/45 45/56/50
f 62/74/106 63/75/107 47/58/1 46/57/45
f 63/75/107 66/78/108 67/79/2 47/58/1
f 64/76/109 49/60/110 33/43/26 48/59/25
s 4
f 7/7/111 50/62/90 49/61/89 1/9/112
s 3
f 12/20/113 51/63/92 50/62/91 7/7/114
f 13/22/115 52/64/94 71/84/93 72/86/116
f 5/5/117 53/65/95 52/64/94 13/22/115
f 54/66/96 53/65/95 5/5/117 32/42/118
f 55/67/97 54/66/96 32/42/118 20/30/119
f 56/68/98 55/67/97 20/30/119 28/38/120
f 57/69/99 56/68/98 28/38/120 24/34/121
s 2
f 21/31/122 58/70/101 57/69/100 24/34/123
s 1
f 25/35/124 59/71/103 58/70/102 21/31/125
f 17/27/126 60/72/104 59/71/103 25/35/124
f 29/39/127 61/73/105 60/72/104 17/27/126
f 3/3/128 62/74/106 61/73/105 29/39/127
f 16/26/129 63/75/107 62/74/106 3/3/128
f 65/77/130 66/78/108 63/75/107 16/26/129
f 1/1/131 49/60/110 64/76/109 9/15/132
f 73/87/133 74/88/134 66/78/108 65/77/130
f 67/79/2 66/78/108 74/88/134 75/89/135
f 68/80/3 67/79/2 75/89/135 76/90/136
s 5
f 76/90/137 77/92/138 69/82/18 68/80/17
s 3
f 77/91/139 78/93/140 70/83/10 69/81/9
f 78/93/140 79/94/141 71/84/93 70/83/10
f 72/86/116 71/84/93 79/94/141 80/96/142
s 6
f 80/95/143 73/87/144 65/77/22 72/85/21
s 1
f 9/15/132 64/76/109 74/88/134 73/87/133
f 75/89/135 74/88/134 64/76/109 48/59/25
f 76/90/136 75/89/135 48/59/25 10/16/28
s 5
f 10/16/32 11/18/31 77/92/138 76/90/137
s 3
f 35/46/34 78/93/140 77/91/139 11/17/35
f 51/63/92 79/94/141 78/93/140 35/46/34
f 80/96/142 79/94/141 51/63/92 12/20/113
s 6
f 12/19/40 9/15/39 73/87/144 80/95/143
