# This file uses centimeters as units for non-parametric coordinates.

mtllib Table.mtl
g default
v 17.509899 -2.201129 31.122076
v 45.528902 -2.201129 31.122076
v 17.509899 2.201129 31.122076
v 45.528902 2.201129 31.122076
v 17.509899 2.201129 -37.361926
v 45.528902 2.201129 -37.361926
v 17.509899 -2.201129 -37.361926
v 45.528902 -2.201129 -37.361926
v 17.509899 2.201129 19.732293
v 17.509899 2.201129 -25.972150
v 45.528902 2.201129 19.732293
v 45.528902 2.201129 -25.972150
v 45.528902 -2.201129 -31.374815
v 45.528902 -2.201129 25.134956
v 17.509899 -2.201129 -31.374815
v 17.509899 -2.201129 25.134956
v 40.802264 -2.201129 31.122076
v 40.802264 -2.201129 25.134956
v 40.802264 -2.201129 -31.374815
v 40.802264 -2.201129 -37.361926
v 40.802264 2.201129 -37.361926
v 40.802264 2.201129 -25.972150
v 40.802264 2.201129 19.732293
v 40.802264 2.201129 31.122076
v 21.633718 -2.201129 31.122076
v 21.633718 -2.201129 25.134956
v 21.633718 -2.201129 -31.374815
v 21.633718 -2.201129 -37.361926
v 21.633718 2.201129 -37.361926
v 21.633718 2.201129 -25.972150
v 21.633718 2.201129 19.732293
v 21.633718 2.201129 31.122076
v 40.802264 -29.580873 -31.374815
v 40.802264 -29.580873 -37.361926
v 45.528902 -29.580873 -37.361926
v 45.528902 -29.580873 -31.374815
v 40.802264 -29.580873 31.122076
v 40.802264 -29.580873 25.134956
v 45.528902 -29.580873 25.134956
v 45.528902 -29.580873 31.122076
v 17.509899 -29.580873 25.134956
v 21.633718 -29.580873 25.134956
v 21.633718 -29.580873 31.122076
v 17.509899 -29.580873 31.122076
v 17.509899 -29.580873 -37.361926
v 21.633718 -29.580873 -37.361926
v 21.633718 -29.580873 -31.374815
v 17.509899 -29.580873 -31.374815
v 40.802264 -3.233948 31.122076
v 40.802264 -3.233948 25.134956
v 45.528902 -3.233948 25.134956
v 45.528902 -3.233948 31.122076
v 40.802264 -3.233948 -37.361926
v 40.802264 -3.233948 -31.374813
v 45.528902 -3.233948 -31.374813
v 45.528902 -3.233948 -37.361926
v 17.509899 -2.922471 -37.361926
v 21.633718 -2.922471 -37.361926
v 21.633718 -2.922471 -31.374813
v 17.509899 -2.922471 -31.374813
v 17.509899 -2.922471 31.122076
v 21.633718 -2.922471 31.122076
v 21.633718 -2.922471 25.134956
v 17.509899 -2.922471 25.134956
v 40.802264 -28.992443 31.122076
v 45.528902 -28.992443 31.122076
v 45.528902 -28.992443 25.134956
v 40.802264 -28.992443 25.134956
v 40.802264 -28.992443 -37.361926
v 45.528902 -28.992443 -37.361926
v 45.528902 -28.992443 -31.374813
v 40.802264 -28.992443 -31.374813
v 17.509899 -29.060686 31.122076
v 21.633718 -29.060686 31.122076
v 21.633718 -29.060686 25.134956
v 17.509899 -29.060686 25.134956
v 17.509899 -29.060686 -37.361926
v 21.633718 -29.060686 -37.361926
v 21.633718 -29.060686 -31.374813
v 17.509899 -29.060686 -31.374813
vt 0.375000 0.000000
vt 0.625000 0.000000
vt 0.375000 0.250000
vt 0.625000 0.250000
vt 0.375000 0.500000
vt 0.625000 0.500000
vt 0.375000 0.750000
vt 0.625000 0.750000
vt 0.375000 1.000000
vt 0.625000 1.000000
vt 0.875000 0.000000
vt 0.875000 0.250000
vt 0.125000 0.000000
vt 0.125000 0.250000
vt 0.333422 0.250000
vt 0.375000 0.291578
vt 0.166578 0.250000
vt 0.375000 0.458422
vt 0.625000 0.291578
vt 0.666578 0.250000
vt 0.625000 0.458422
vt 0.833422 0.250000
vt 0.625000 0.791578
vt 0.833422 0.000000
vt 0.625000 0.958422
vt 0.666578 0.000000
vt 0.166578 0.000000
vt 0.375000 0.791578
vt 0.333422 0.000000
vt 0.375000 0.958422
vt 0.582826 0.000000
vt 0.582826 1.000000
vt 0.582826 0.958422
vt 0.582826 0.791578
vt 0.582826 0.750000
vt 0.582826 0.500000
vt 0.582826 0.458422
vt 0.582826 0.291578
vt 0.582826 0.250000
vt 0.411795 0.000000
vt 0.411795 1.000000
vt 0.411795 0.958422
vt 0.411795 0.791578
vt 0.411795 0.750000
vt 0.411795 0.500000
vt 0.411795 0.458422
vt 0.411795 0.291578
vt 0.411795 0.250000
vt 0.582826 0.791578
vt 0.582826 0.750000
vt 0.625000 0.750000
vt 0.625000 0.791578
vt 0.582826 1.000000
vt 0.582826 0.958422
vt 0.625000 0.958422
vt 0.625000 1.000000
vt 0.375000 0.958422
vt 0.411795 0.958422
vt 0.411795 1.000000
vt 0.375000 1.000000
vt 0.375000 0.750000
vt 0.411795 0.750000
vt 0.411795 0.791578
vt 0.375000 0.791578
vt 0.582826 1.000000
vt 0.582826 0.958422
vt 0.625000 0.958422
vt 0.625000 1.000000
vt 0.582826 0.750000
vt 0.582826 0.791578
vt 0.625000 0.791578
vt 0.625000 0.750000
vt 0.375000 0.750000
vt 0.411795 0.750000
vt 0.411795 0.791578
vt 0.375000 0.791578
vt 0.375000 1.000000
vt 0.411795 1.000000
vt 0.411795 0.958422
vt 0.375000 0.958422
vt 0.582826 1.000000
vt 0.625000 1.000000
vt 0.625000 0.958422
vt 0.582826 0.958422
vt 0.582826 0.750000
vt 0.625000 0.750000
vt 0.625000 0.791578
vt 0.582826 0.791578
vt 0.375000 1.000000
vt 0.411795 1.000000
vt 0.411795 0.958422
vt 0.375000 0.958422
vt 0.375000 0.750000
vt 0.411795 0.750000
vt 0.411795 0.791578
vt 0.375000 0.791578
vn 0.000000 0.000000 1.000000
vn 0.000000 0.000000 1.000000
vn 0.000000 0.000000 1.000000
vn 0.000000 0.000000 1.000000
vn 0.000000 1.000000 0.000000
vn 0.000000 1.000000 0.000000
vn 0.000000 1.000000 0.000000
vn 0.000000 1.000000 0.000000
vn 0.000000 0.000000 -1.000000
vn 0.000000 0.000000 -1.000000
vn 0.000000 0.000000 -1.000000
vn 0.000000 0.000000 -1.000000
vn 0.000000 -1.000000 0.000000
vn 0.000000 -1.000000 0.000000
vn 0.000000 -1.000000 0.000000
vn 0.000000 -1.000000 0.000000
vn 1.000000 0.000000 0.000000
vn 1.000000 0.000000 0.000000
vn 1.000000 0.000000 0.000000
vn 1.000000 0.000000 0.000000
vn -1.000000 0.000000 0.000000
vn -1.000000 0.000000 0.000000
vn -1.000000 0.000000 0.000000
vn -1.000000 0.000000 0.000000
vn 0.000000 1.000000 0.000000
vn 0.000000 1.000000 0.000000
vn 0.000000 1.000000 0.000000
vn 0.000000 1.000000 0.000000
vn 1.000000 0.000000 0.000000
vn 1.000000 0.000000 0.000000
vn 1.000000 0.000000 0.000000
vn 1.000000 0.000000 0.000000
vn 0.000000 -1.000000 0.000000
vn 0.000000 -1.000000 0.000000
vn 0.000000 -1.000000 0.000000
vn 0.000000 -1.000000 0.000000
vn 0.000000 -1.000000 0.000000
vn 0.000000 -1.000000 0.000000
vn 0.000000 -1.000000 0.000000
vn 0.000000 -1.000000 0.000000
vn -1.000000 0.000000 0.000000
vn -1.000000 0.000000 0.000000
vn -1.000000 0.000000 0.000000
vn -1.000000 0.000000 0.000000
vn 0.000000 -1.000000 0.000000
vn 0.000000 -1.000000 0.000000
vn 0.000000 -1.000000 0.000000
vn 0.000000 -1.000000 0.000000
vn 0.000000 -1.000000 0.000000
vn 0.000000 -1.000000 0.000000
vn 0.000000 0.000000 -1.000000
vn 0.000000 0.000000 -1.000000
vn 0.000000 1.000000 0.000000
vn 0.000000 1.000000 0.000000
vn 0.000000 1.000000 0.000000
vn 0.000000 1.000000 0.000000
vn 0.000000 0.000000 1.000000
vn 0.000000 0.000000 1.000000
vn 0.000000 -1.000000 0.000000
vn 0.000000 -1.000000 0.000000
vn 0.000000 -1.000000 0.000000
vn 0.000000 -1.000000 0.000000
vn 0.000000 -1.000000 0.000000
vn 0.000000 -1.000000 0.000000
vn 0.000000 -1.000000 0.000000
vn 0.000000 -1.000000 0.000000
vn 0.000000 -1.000000 0.000000
vn 0.000000 -1.000000 0.000000
vn 0.000000 0.000000 -1.000000
vn 0.000000 0.000000 -1.000000
vn 0.000000 1.000000 0.000000
vn 0.000000 1.000000 0.000000
vn 0.000000 1.000000 0.000000
vn 0.000000 1.000000 0.000000
vn 0.000000 0.000000 1.000000
vn 0.000000 0.000000 1.000000
vn -1.000000 -0.000000 0.000000
vn -1.000000 -0.000000 0.000000
vn -1.000000 -0.000000 0.000000
vn -1.000000 -0.000000 0.000000
vn 0.000000 0.000000 -1.000000
vn 0.000000 0.000000 -1.000000
vn 0.000000 0.000000 -1.000000
vn 0.000000 0.000000 -1.000000
vn 1.000000 0.000000 0.000000
vn 1.000000 0.000000 0.000000
vn 1.000000 0.000000 0.000000
vn 1.000000 0.000000 0.000000
vn 0.000000 0.000002 1.000000
vn 0.000000 0.000002 1.000000
vn 0.000000 0.000000 1.000000
vn 0.000000 0.000000 1.000000
vn -1.000000 0.000000 0.000000
vn -1.000000 0.000000 0.000000
vn -1.000000 0.000000 0.000000
vn -1.000000 0.000000 0.000000
vn 0.000000 0.000000 -1.000000
vn 0.000000 0.000000 -1.000000
vn 0.000000 0.000000 -1.000000
vn 0.000000 0.000000 -1.000000
vn 1.000000 0.000000 0.000000
vn 1.000000 0.000000 0.000000
vn 1.000000 0.000000 0.000000
vn 1.000000 0.000000 0.000000
vn 0.000000 0.000000 1.000000
vn 0.000000 0.000000 1.000000
vn 0.000000 0.000000 1.000000
vn 0.000000 0.000000 1.000000
vn 0.000000 0.000000 -1.000000
vn 0.000000 0.000000 -1.000000
vn 0.000000 0.000000 -1.000000
vn 0.000000 0.000000 -1.000000
vn 1.000000 0.000000 0.000000
vn 1.000000 0.000000 0.000000
vn 1.000000 0.000000 0.000000
vn 1.000000 0.000000 0.000000
vn 0.000000 0.000000 1.000000
vn 0.000000 0.000000 1.000000
vn 0.000000 0.000000 1.000000
vn 0.000000 0.000000 1.000000
vn -1.000000 0.000000 0.000000
vn -1.000000 0.000000 0.000000
vn -1.000000 0.000000 0.000000
vn -1.000000 0.000000 0.000000
vn 0.000000 0.000000 -1.000000
vn 0.000000 0.000000 -1.000000
vn 0.000000 0.000000 -1.000000
vn 0.000000 0.000000 -1.000000
vn 1.000000 0.000000 0.000000
vn 1.000000 0.000000 0.000000
vn 1.000000 0.000000 0.000000
vn 1.000000 0.000000 0.000000
vn 0.000000 -0.000000 1.000000
vn 0.000000 -0.000000 1.000000
vn 0.000000 -0.000004 1.000000
vn 0.000000 -0.000004 1.000000
vn -1.000000 0.000000 0.000000
vn -1.000000 0.000000 0.000000
vn -1.000000 0.000000 0.000000
vn -1.000000 0.000000 0.000000
vn -1.000000 0.000000 0.000000
vn -1.000000 0.000000 0.000000
vn 0.000000 0.000000 -1.000000
vn 0.000000 0.000000 -1.000000
vn 1.000000 0.000000 0.000000
vn 1.000000 0.000000 0.000000
vn 0.000000 0.000000 1.000000
vn 0.000000 0.000000 1.000000
vn -1.000000 0.000000 0.000000
vn -1.000000 0.000000 0.000000
vn -1.000000 0.000001 0.000000
vn -1.000000 0.000001 0.000000
vn 0.000000 -0.000000 1.000000
vn 0.000000 -0.000000 1.000000
vn 0.000000 -0.000003 1.000000
vn 0.000000 -0.000003 1.000000
vn 1.000000 0.000000 0.000000
vn 1.000000 0.000000 0.000000
vn 1.000000 0.000000 0.000000
vn 1.000000 0.000000 0.000000
vn 0.000000 0.000000 -1.000000
vn 0.000000 0.000000 -1.000000
vn 0.000000 0.000000 -1.000000
vn 0.000000 0.000000 -1.000000
vn 0.000000 0.000000 -1.000000
vn 0.000000 0.000000 -1.000000
vn 0.000000 0.000000 -1.000000
vn 0.000000 0.000000 -1.000000
vn 1.000000 0.000000 0.000000
vn 1.000000 0.000000 0.000000
vn 1.000000 0.000000 0.000000
vn 1.000000 0.000000 0.000000
vn 0.000000 0.000003 1.000000
vn 0.000000 0.000003 1.000000
vn 0.000000 0.000000 1.000000
vn 0.000000 0.000000 1.000000
vn -1.000000 0.000000 0.000000
vn -1.000000 0.000000 0.000000
vn -1.000000 0.000000 0.000000
vn -1.000000 0.000000 0.000000
vn 0.000000 0.000000 1.000000
vn 0.000000 0.000000 1.000000
vn 1.000000 0.000000 0.000000
vn 1.000000 0.000000 0.000000
vn 0.000000 0.000000 -1.000000
vn 0.000000 0.000000 -1.000000
vn -1.000000 0.000000 0.000000
vn -1.000000 0.000000 0.000000
vn 0.000000 0.000000 1.000000
vn 0.000000 0.000000 1.000000
vn 1.000000 0.000000 0.000000
vn 1.000000 0.000000 0.000000
vn 0.000000 0.000000 -1.000000
vn 0.000000 0.000000 -1.000000
vn -1.000000 0.000000 0.000000
vn -1.000000 0.000000 0.000000
vn 0.000000 0.000000 1.000000
vn 0.000000 0.000000 1.000000
vn 1.000000 0.000000 0.000000
vn 1.000000 0.000000 0.000000
vn 0.000000 0.000000 -1.000000
vn 0.000000 0.000000 -1.000000
vn -1.000000 0.000000 0.000000
vn -1.000000 0.000000 0.000000
s 1
g pCube5
usemtl initialShadingGroup
f 24/39/1 17/31/2 2/2/3 4/4/4
s 2
f 21/36/5 22/37/6 12/21/7 6/6/8
s 3
f 20/35/9 21/36/10 6/6/11 8/8/12
s off
f 33/49/13 34/50/14 35/51/15 36/52/16
s 4
f 12/22/17 13/24/18 8/11/19 6/12/20
s 5
f 9/15/21 16/29/22 1/1/23 3/3/24
s 2
f 23/38/25 24/39/26 4/4/27 11/19/28
s 4
f 2/2/29 14/26/30 11/20/31 4/4/32
s off
f 37/53/33 38/54/34 39/55/35 40/56/36
s 7
f 18/33/37 19/34/38 13/23/39 14/25/40
s 4
f 11/20/31 14/26/30 13/24/18 12/22/17
s 2
f 22/37/6 23/38/25 11/19/28 12/21/7
s 5
f 10/17/41 15/27/42 16/29/22 9/15/21
f 7/13/43 15/27/42 10/17/41 5/14/44
s 7
f 25/41/45 26/42/46 18/33/37 17/32/47
f 26/42/46 27/43/48 19/34/38 18/33/37
f 27/43/48 28/44/49 20/35/50 19/34/38
s 3
f 28/44/51 29/45/52 21/36/10 20/35/9
s 2
f 29/45/53 30/46/54 22/37/6 21/36/5
f 30/46/54 31/47/55 23/38/25 22/37/6
f 31/47/55 32/48/56 24/39/26 23/38/25
s 1
f 32/48/57 25/40/58 17/31/2 24/39/1
s off
f 41/57/59 42/58/60 43/59/61 44/60/62
s 7
f 15/28/63 27/43/48 26/42/46 16/30/64
s off
f 45/61/65 46/62/66 47/63/67 48/64/68
s 3
f 5/5/69 29/45/52 28/44/51 7/7/70
s 2
f 10/18/71 30/46/54 29/45/53 5/5/72
f 10/18/71 9/16/73 31/47/55 30/46/54
f 3/3/74 32/48/56 31/47/55 9/16/73
s 1
f 1/1/75 25/40/58 32/48/57 3/3/76
s 8
f 19/34/77 20/35/78 53/69/79 54/70/80
s 9
f 20/35/81 8/8/82 56/72/83 53/69/84
s 10
f 8/8/85 13/23/86 55/71/87 56/72/88
s 11
f 13/23/89 19/34/90 54/70/91 55/71/92
s 12
f 49/65/93 50/66/94 68/84/95 65/81/96
s 13
f 50/66/97 51/67/98 67/83/99 68/84/100
s 14
f 51/67/101 52/68/102 66/82/103 67/83/104
s 15
f 52/68/105 49/65/106 65/81/107 66/82/108
s 16
f 16/30/109 26/42/110 63/79/111 64/80/112
s 17
f 26/42/113 25/41/114 62/78/115 63/79/116
s 18
f 25/41/117 1/9/118 61/77/119 62/78/120
s 19
f 1/9/121 16/30/122 64/80/123 61/77/124
s 20
f 77/93/125 78/94/126 46/62/127 45/61/128
s 21
f 78/94/129 79/95/130 47/63/131 46/62/132
s 22
f 79/95/133 80/96/134 48/64/135 47/63/136
s 23
f 80/96/137 77/93/138 45/61/139 48/64/140
s 12
f 17/32/141 18/33/142 50/66/94 49/65/93
s 13
f 18/33/143 14/25/144 51/67/98 50/66/97
s 14
f 14/25/145 2/10/146 52/68/102 51/67/101
s 15
f 2/10/147 17/32/148 49/65/106 52/68/105
s 8
f 72/88/149 69/85/150 34/50/151 33/49/152
s 11
f 71/87/153 72/88/154 33/49/155 36/52/156
s 10
f 70/86/157 71/87/158 36/52/159 35/51/160
s 9
f 69/85/161 70/86/162 35/51/163 34/50/164
s 20
f 7/7/165 28/44/166 58/74/167 57/73/168
s 21
f 28/44/169 27/43/170 59/75/171 58/74/172
s 22
f 27/43/173 15/28/174 60/76/175 59/75/176
s 23
f 15/28/177 7/7/178 57/73/179 60/76/180
s 18
f 62/78/120 61/77/119 73/89/181 74/90/182
s 17
f 63/79/116 62/78/115 74/90/183 75/91/184
s 16
f 64/80/112 63/79/111 75/91/185 76/92/186
s 19
f 61/77/124 64/80/123 76/92/187 73/89/188
s 15
f 66/82/108 65/81/107 37/53/189 40/56/190
s 14
f 67/83/104 66/82/103 40/56/191 39/55/192
s 13
f 68/84/100 67/83/99 39/55/193 38/54/194
s 12
f 65/81/96 68/84/95 38/54/195 37/53/196
s 9
f 53/69/84 56/72/83 70/86/162 69/85/161
s 10
f 56/72/88 55/71/87 71/87/158 70/86/157
s 11
f 55/71/92 54/70/91 72/88/154 71/87/153
s 8
f 54/70/80 53/69/79 69/85/150 72/88/149
s 18
f 74/90/182 73/89/181 44/60/197 43/59/198
s 17
f 75/91/184 74/90/183 43/59/199 42/58/200
s 16
f 76/92/186 75/91/185 42/58/201 41/57/202
s 19
f 73/89/188 76/92/187 41/57/203 44/60/204
s 20
f 57/73/168 58/74/167 78/94/126 77/93/125
s 21
f 58/74/172 59/75/171 79/95/130 78/94/129
s 22
f 59/75/176 60/76/175 80/96/134 79/95/133
s 23
f 60/76/180 57/73/179 77/93/138 80/96/137
