# This file uses centimeters as units for non-parametric coordinates.

mtllib Knife.mtl
g default
v 1.738987 -2.995089 0.194663
v 2.254434 -2.995089 0.194663
v 1.738987 0.629392 0.194663
v 2.254434 0.629392 0.194663
v 1.738987 0.629392 -0.194663
v 2.254434 0.629392 -0.194663
v 1.738987 -2.995089 -0.194663
v 2.254434 -2.995089 -0.194663
v 1.565913 4.390898 0.194663
v 2.427508 4.390898 0.194663
v 2.427508 4.390898 -0.194663
v 1.565913 4.390898 -0.194663
v 1.574016 3.882915 0.194663
v 2.419405 3.882915 0.194663
v 2.419405 3.882915 -0.194663
v 1.574016 3.882915 -0.194663
v 1.586445 3.637798 0.194663
v 2.406976 3.637798 0.194663
v 2.406976 3.637798 -0.194663
v 1.586445 3.637798 -0.194663
v 1.598235 3.405278 0.194663
v 2.395186 3.405278 0.194663
v 2.395186 3.405278 -0.194663
v 1.598235 3.405278 -0.194663
v 1.609194 3.189140 0.194663
v 2.384226 3.189140 0.194663
v 2.384226 3.189140 -0.194663
v 1.609194 3.189140 -0.194663
v 1.621459 2.947254 0.194663
v 2.371962 2.947254 0.194663
v 2.371962 2.947254 -0.194663
v 1.621459 2.947254 -0.194663
v 1.633106 2.717554 0.194663
v 2.360314 2.717554 0.194663
v 2.360314 2.717554 -0.194663
v 1.633106 2.717554 -0.194663
v 1.644607 2.490733 0.194663
v 2.348814 2.490733 0.194663
v 2.348814 2.490733 -0.194663
v 1.644607 2.490733 -0.194663
v 1.656727 2.251710 0.194663
v 2.336694 2.251710 0.194663
v 2.336694 2.251710 -0.194663
v 1.656727 2.251710 -0.194663
v 1.668054 2.028324 0.194663
v 2.325367 2.028324 0.194663
v 2.325367 2.028324 -0.194663
v 1.668054 2.028324 -0.194663
v 1.678476 1.822785 0.194663
v 2.314945 1.822785 0.194663
v 2.314945 1.822785 -0.194663
v 1.678476 1.822785 -0.194663
v 1.693634 1.523832 0.194663
v 2.299786 1.523832 0.194663
v 2.299786 1.523832 -0.194663
v 1.693634 1.523832 -0.194663
v 1.711090 1.179570 0.194663
v 2.282331 1.179570 0.194663
v 2.282331 1.179570 -0.194663
v 1.711090 1.179570 -0.194663
v 2.393598 1.158779 0.194663
v 2.393598 1.158779 -0.194663
v 2.411054 1.503041 -0.194663
v 2.411054 1.503041 0.194663
v 2.462744 1.515570 0.194663
v 2.462744 1.515570 -0.194663
v 2.477903 1.814522 -0.194663
v 2.477903 1.814522 0.194663
v 2.470003 1.814923 0.194663
v 2.470003 1.814923 -0.194663
v 2.480425 2.020462 -0.194663
v 2.480425 2.020462 0.194663
v 2.516807 3.630737 0.194663
v 2.516807 3.630737 -0.194663
v 2.529236 3.875855 -0.194663
v 2.529236 3.875855 0.194663
v 2.534943 3.398930 0.194663
v 2.534943 3.398930 -0.194663
v 2.546732 3.631450 -0.194663
v 2.546732 3.631450 0.194663
v 2.552057 3.180630 0.194663
v 2.552057 3.180630 -0.194663
v 2.563017 3.396768 -0.194663
v 2.563017 3.396768 0.194663
v 2.577245 2.939476 0.194663
v 2.577245 2.939476 -0.194663
v 2.589510 3.181361 -0.194663
v 2.589510 3.181361 0.194663
v 2.593305 2.708244 0.194663
v 2.593305 2.708244 -0.194663
v 2.604952 2.937943 -0.194663
v 2.604952 2.937943 0.194663
v 2.606793 2.481485 0.194663
v 2.606793 2.481485 -0.194663
v 2.618294 2.708307 -0.194663
v 2.618294 2.708307 0.194663
v 2.558207 2.242216 0.194663
v 2.558207 2.242216 -0.194663
v 2.570327 2.481240 -0.194663
v 2.570327 2.481240 0.194663
v 2.515816 2.019076 0.194663
v 2.515816 2.019076 -0.194663
v 2.527143 2.242462 -0.194663
v 2.527143 2.242462 0.194663
v 2.462279 3.880741 0.194663
v 2.462279 3.880741 -0.194663
v 2.470382 4.040546 -0.194663
v 2.470382 4.040546 0.194663
vt 0.375000 0.000000
vt 0.625000 0.000000
vt 0.375000 0.250000
vt 0.625000 0.250000
vt 0.375000 0.500000
vt 0.625000 0.500000
vt 0.375000 0.750000
vt 0.625000 0.750000
vt 0.375000 1.000000
vt 0.625000 1.000000
vt 0.875000 0.000000
vt 0.875000 0.250000
vt 0.125000 0.000000
vt 0.125000 0.250000
vt 0.375000 0.250000
vt 0.625000 0.250000
vt 0.625000 0.500000
vt 0.375000 0.500000
vt 0.375000 0.250000
vt 0.625000 0.250000
vt 0.625000 0.500000
vt 0.375000 0.500000
vt 0.375000 0.250000
vt 0.625000 0.250000
vt 0.625000 0.500000
vt 0.375000 0.500000
vt 0.375000 0.250000
vt 0.625000 0.250000
vt 0.625000 0.500000
vt 0.375000 0.500000
vt 0.375000 0.250000
vt 0.625000 0.250000
vt 0.625000 0.500000
vt 0.375000 0.500000
vt 0.375000 0.250000
vt 0.625000 0.250000
vt 0.625000 0.500000
vt 0.375000 0.500000
vt 0.375000 0.250000
vt 0.625000 0.250000
vt 0.625000 0.500000
vt 0.375000 0.500000
vt 0.375000 0.250000
vt 0.625000 0.250000
vt 0.625000 0.500000
vt 0.375000 0.500000
vt 0.375000 0.250000
vt 0.625000 0.250000
vt 0.625000 0.500000
vt 0.375000 0.500000
vt 0.375000 0.250000
vt 0.625000 0.250000
vt 0.625000 0.500000
vt 0.375000 0.500000
vt 0.375000 0.250000
vt 0.625000 0.250000
vt 0.625000 0.500000
vt 0.375000 0.500000
vt 0.375000 0.250000
vt 0.625000 0.250000
vt 0.625000 0.500000
vt 0.375000 0.500000
vt 0.375000 0.250000
vt 0.625000 0.250000
vt 0.625000 0.500000
vt 0.375000 0.500000
vt 0.625000 0.250000
vt 0.625000 0.500000
vt 0.625000 0.500000
vt 0.625000 0.250000
vt 0.625000 0.250000
vt 0.625000 0.500000
vt 0.625000 0.500000
vt 0.625000 0.250000
vt 0.625000 0.250000
vt 0.625000 0.500000
vt 0.625000 0.500000
vt 0.625000 0.250000
vt 0.625000 0.250000
vt 0.625000 0.500000
vt 0.625000 0.500000
vt 0.625000 0.250000
vt 0.625000 0.250000
vt 0.625000 0.500000
vt 0.625000 0.500000
vt 0.625000 0.250000
vt 0.625000 0.250000
vt 0.625000 0.500000
vt 0.625000 0.500000
vt 0.625000 0.250000
vt 0.625000 0.250000
vt 0.625000 0.500000
vt 0.625000 0.500000
vt 0.625000 0.250000
vt 0.625000 0.250000
vt 0.625000 0.500000
vt 0.625000 0.500000
vt 0.625000 0.250000
vt 0.625000 0.250000
vt 0.625000 0.500000
vt 0.625000 0.500000
vt 0.625000 0.250000
vt 0.625000 0.250000
vt 0.625000 0.500000
vt 0.625000 0.500000
vt 0.625000 0.250000
vt 0.625000 0.250000
vt 0.625000 0.500000
vt 0.625000 0.500000
vt 0.625000 0.250000
vt 0.625000 0.250000
vt 0.625000 0.500000
vt 0.625000 0.500000
vt 0.625000 0.250000
vn 0.000000 0.000000 1.000000
vn 0.000000 0.000000 1.000000
vn 0.000000 0.000000 1.000000
vn 0.000000 0.000000 1.000000
vn 0.000000 1.000000 0.000000
vn 0.361204 0.932487 0.000000
vn 0.361204 0.932487 0.000000
vn 0.000000 1.000000 0.000000
vn 0.000000 0.000000 -1.000000
vn 0.000000 0.000000 -1.000000
vn 0.000000 0.000000 -1.000000
vn 0.000000 0.000000 -1.000000
vn 0.000000 -1.000000 0.000000
vn 0.000000 -1.000000 0.000000
vn 0.000000 -1.000000 0.000000
vn 0.000000 -1.000000 0.000000
vn 1.000000 0.000000 0.000000
vn 1.000000 0.000000 0.000000
vn 0.999978 -0.006682 0.000000
vn 0.999978 -0.006682 0.000000
vn -1.000000 0.000000 0.000000
vn -1.000000 0.000000 0.000000
vn -0.999978 -0.006682 0.000000
vn -0.999978 -0.006682 0.000000
vn 0.000000 0.000000 1.000000
vn 0.000000 0.000000 1.000000
vn 0.000000 0.000000 1.000000
vn 0.000000 0.000000 1.000000
vn 0.998717 -0.050640 0.000000
vn 0.998717 -0.050640 0.000000
vn 0.998717 -0.050640 0.000000
vn 0.998717 -0.050640 0.000000
vn 0.000000 0.000000 -1.000000
vn 0.000000 0.000000 -1.000000
vn 0.000000 0.000000 -1.000000
vn 0.000000 0.000000 -1.000000
vn -0.999629 -0.027253 0.000000
vn -0.999629 -0.027253 0.000000
vn -0.999873 -0.015949 0.000000
vn -0.999873 -0.015949 0.000000
vn 0.000000 0.000000 1.000000
vn 0.000000 0.000000 1.000000
vn 0.998717 -0.050640 0.000000
vn 0.998717 -0.050640 0.000000
vn 0.998717 -0.050640 0.000000
vn 0.998717 -0.050640 0.000000
vn -0.000000 0.000000 -1.000000
vn 0.000000 0.000000 -1.000000
vn -0.998717 -0.050640 0.000000
vn -0.998717 -0.050640 0.000000
vn 0.000000 0.000000 1.000000
vn 0.000000 0.000000 1.000000
vn 0.998717 -0.050640 0.000000
vn 0.998717 -0.050640 0.000000
vn 0.998717 -0.050640 0.000000
vn 0.998717 -0.050640 0.000000
vn -0.000000 0.000000 -1.000000
vn 0.000000 0.000000 -1.000000
vn -0.998717 -0.050640 0.000000
vn -0.998717 -0.050640 0.000000
vn 0.000000 0.000000 1.000000
vn 0.000000 0.000000 1.000000
vn 0.998717 -0.050641 0.000000
vn 0.998717 -0.050641 0.000000
vn 0.998717 -0.050641 0.000000
vn 0.998717 -0.050641 0.000000
vn -0.000000 0.000000 -1.000000
vn 0.000000 0.000000 -1.000000
vn -0.998717 -0.050640 0.000000
vn -0.998717 -0.050640 0.000000
vn 0.000000 0.000000 1.000000
vn 0.000000 0.000000 1.000000
vn 0.998717 -0.050640 0.000000
vn 0.998717 -0.050640 0.000000
vn 0.998717 -0.050640 0.000000
vn 0.998717 -0.050640 0.000000
vn -0.000000 0.000000 -1.000000
vn 0.000000 0.000000 -1.000000
vn -0.998717 -0.050640 0.000000
vn -0.998717 -0.050640 0.000000
vn 0.000000 0.000000 1.000000
vn 0.000000 0.000000 1.000000
vn 0.998717 -0.050641 0.000000
vn 0.998717 -0.050641 0.000000
vn 0.998717 -0.050641 0.000000
vn 0.998717 -0.050641 0.000000
vn -0.000000 0.000000 -1.000000
vn 0.000000 0.000000 -1.000000
vn -0.998717 -0.050640 0.000000
vn -0.998717 -0.050640 0.000000
vn 0.000000 0.000000 1.000000
vn 0.000000 0.000000 1.000000
vn 0.998717 -0.050639 0.000000
vn 0.998717 -0.050639 0.000000
vn 0.998717 -0.050639 0.000000
vn 0.998717 -0.050639 0.000000
vn -0.000000 0.000000 -1.000000
vn 0.000000 0.000000 -1.000000
vn -0.998717 -0.050640 0.000000
vn -0.998717 -0.050640 0.000000
vn 0.000000 0.000000 1.000000
vn 0.000000 0.000000 1.000000
vn 0.998717 -0.050640 0.000000
vn 0.998717 -0.050640 0.000000
vn 0.998717 -0.050640 0.000000
vn 0.998717 -0.050640 0.000000
vn -0.000000 0.000000 -1.000000
vn 0.000000 0.000000 -1.000000
vn -0.998717 -0.050640 0.000000
vn -0.998717 -0.050640 0.000000
vn 0.000000 0.000000 1.000000
vn 0.000000 0.000000 1.000000
vn 0.998717 -0.050640 0.000000
vn 0.998717 -0.050640 0.000000
vn 0.998717 -0.050640 0.000000
vn 0.998717 -0.050640 0.000000
vn -0.000000 0.000000 -1.000000
vn 0.000000 0.000000 -1.000000
vn -0.998717 -0.050640 0.000000
vn -0.998717 -0.050640 0.000000
vn 0.000000 0.000000 1.000000
vn 0.000000 0.000000 1.000000
vn 0.998717 -0.050640 0.000000
vn 0.998717 -0.050640 0.000000
vn 0.998717 -0.050640 0.000000
vn 0.998717 -0.050640 0.000000
vn -0.000000 0.000000 -1.000000
vn 0.000000 0.000000 -1.000000
vn -0.998717 -0.050640 0.000000
vn -0.998717 -0.050640 0.000000
vn 0.000000 0.000000 1.000000
vn 0.000000 0.000000 1.000000
vn 0.998717 -0.050641 0.000000
vn 0.998717 -0.050641 0.000000
vn 0.998717 -0.050641 0.000000
vn 0.998717 -0.050641 0.000000
vn -0.000000 0.000000 -1.000000
vn 0.000000 0.000000 -1.000000
vn -0.998717 -0.050640 0.000000
vn -0.998717 -0.050640 0.000000
vn 0.000000 0.000000 1.000000
vn 0.000000 0.000000 1.000000
vn 0.998717 -0.050640 0.000000
vn 0.998717 -0.050640 0.000000
vn 0.998717 -0.050640 0.000000
vn 0.998717 -0.050640 0.000000
vn -0.000000 0.000000 -1.000000
vn 0.000000 0.000000 -1.000000
vn -0.998717 -0.050640 0.000000
vn -0.998717 -0.050640 0.000000
vn 0.998717 -0.050640 0.000000
vn 0.998717 -0.050640 0.000000
vn -0.183682 -0.982986 0.000000
vn -0.183682 -0.982986 0.000000
vn -0.183682 -0.982986 0.000000
vn -0.183682 -0.982986 0.000000
vn -0.000000 0.000000 -1.000000
vn -0.000000 0.000000 -1.000000
vn 0.183680 0.982986 0.000000
vn 0.183680 0.982986 0.000000
vn 0.183680 0.982986 0.000000
vn 0.183680 0.982986 0.000000
vn 0.000000 0.000000 1.000000
vn 0.000000 0.000000 1.000000
vn -0.050638 -0.998717 0.000000
vn -0.050638 -0.998717 0.000000
vn -0.050638 -0.998717 0.000000
vn -0.050638 -0.998717 0.000000
vn -0.000000 0.000000 -1.000000
vn -0.000000 0.000000 -1.000000
vn 0.050644 0.998717 0.000000
vn 0.050644 0.998717 0.000000
vn 0.050644 0.998717 0.000000
vn 0.050644 0.998717 0.000000
vn 0.000000 0.000000 1.000000
vn 0.000000 0.000000 1.000000
vn -0.050643 -0.998717 0.000000
vn -0.050643 -0.998717 0.000000
vn -0.050643 -0.998717 0.000000
vn -0.050643 -0.998717 0.000000
vn -0.000000 0.000000 -1.000000
vn -0.000000 0.000000 -1.000000
vn 0.050640 0.998717 0.000000
vn 0.050640 0.998717 0.000000
vn 0.050640 0.998717 0.000000
vn 0.050640 0.998717 0.000000
vn 0.000000 0.000000 1.000000
vn 0.000000 0.000000 1.000000
vn -0.064156 -0.997940 0.000000
vn -0.064156 -0.997940 0.000000
vn -0.064156 -0.997940 0.000000
vn -0.064156 -0.997940 0.000000
vn -0.000000 0.000000 -1.000000
vn -0.000000 0.000000 -1.000000
vn 0.064152 0.997940 0.000000
vn 0.064152 0.997940 0.000000
vn 0.064152 0.997940 0.000000
vn 0.064152 0.997940 0.000000
vn 0.000000 0.000000 1.000000
vn 0.000000 0.000000 1.000000
vn -0.045375 -0.998970 0.000000
vn -0.045375 -0.998970 0.000000
vn -0.045375 -0.998970 0.000000
vn -0.045375 -0.998970 0.000000
vn -0.000000 0.000000 -1.000000
vn -0.000000 0.000000 -1.000000
vn 0.045378 0.998970 0.000000
vn 0.045378 0.998970 0.000000
vn 0.045378 0.998970 0.000000
vn 0.045378 0.998970 0.000000
vn 0.000000 0.000000 1.000000
vn 0.000000 0.000000 1.000000
vn -0.050641 -0.998717 0.000000
vn -0.050641 -0.998717 0.000000
vn -0.050641 -0.998717 0.000000
vn -0.050641 -0.998717 0.000000
vn -0.000000 0.000000 -1.000000
vn -0.000000 0.000000 -1.000000
vn 0.050641 0.998717 0.000000
vn 0.050641 0.998717 0.000000
vn 0.050641 0.998717 0.000000
vn 0.050641 0.998717 0.000000
vn 0.000000 0.000000 1.000000
vn 0.000000 0.000000 1.000000
vn -0.037861 -0.999283 0.000000
vn -0.037861 -0.999283 0.000000
vn -0.037861 -0.999283 0.000000
vn -0.037861 -0.999283 0.000000
vn -0.000000 0.000000 -1.000000
vn -0.000000 0.000000 -1.000000
vn 0.037865 0.999283 0.000000
vn 0.037865 0.999283 0.000000
vn 0.037865 0.999283 0.000000
vn 0.037865 0.999283 0.000000
vn 0.000000 0.000000 1.000000
vn 0.000000 0.000000 1.000000
vn -0.039928 -0.999203 0.000000
vn -0.039928 -0.999203 0.000000
vn -0.039928 -0.999203 0.000000
vn -0.039928 -0.999203 0.000000
vn -0.000000 0.000000 -1.000000
vn -0.000000 0.000000 -1.000000
vn 0.039928 0.999203 0.000000
vn 0.039928 0.999203 0.000000
vn 0.039928 0.999203 0.000000
vn 0.039928 0.999203 0.000000
vn 0.000000 0.000000 1.000000
vn 0.000000 0.000000 1.000000
vn -0.035825 -0.999358 0.000000
vn -0.035825 -0.999358 0.000000
vn -0.035825 -0.999358 0.000000
vn -0.035825 -0.999358 0.000000
vn -0.000000 0.000000 -1.000000
vn -0.000000 0.000000 -1.000000
vn 0.035822 0.999358 0.000000
vn 0.035822 0.999358 0.000000
vn 0.035822 0.999358 0.000000
vn 0.035822 0.999358 0.000000
vn 0.000000 0.000000 1.000000
vn 0.000000 0.000000 1.000000
vn -0.042819 -0.999083 0.000000
vn -0.042819 -0.999083 0.000000
vn -0.042819 -0.999083 0.000000
vn -0.042819 -0.999083 0.000000
vn -0.000000 0.000000 -1.000000
vn -0.000000 0.000000 -1.000000
vn 0.042818 0.999083 0.000000
vn 0.042818 0.999083 0.000000
vn 0.042818 0.999083 0.000000
vn 0.042818 0.999083 0.000000
vn 0.000000 0.000000 1.000000
vn 0.000000 0.000000 1.000000
vn -0.048503 -0.998823 0.000000
vn -0.048503 -0.998823 0.000000
vn -0.048503 -0.998823 0.000000
vn -0.048503 -0.998823 0.000000
vn -0.000000 0.000000 -1.000000
vn -0.000000 0.000000 -1.000000
vn 0.048502 0.998823 0.000000
vn 0.048502 0.998823 0.000000
vn 0.048502 0.998823 0.000000
vn 0.048502 0.998823 0.000000
vn 0.000000 0.000000 1.000000
vn 0.000000 0.000000 1.000000
vn -0.050645 -0.998717 0.000000
vn -0.050645 -0.998717 0.000000
vn -0.050645 -0.998717 0.000000
vn -0.050645 -0.998717 0.000000
vn 0.000000 0.000000 -1.000000
vn 0.000000 0.000000 -1.000000
vn 0.992595 0.121470 0.000000
vn 0.992595 0.121470 0.000000
vn 0.000000 0.000000 1.000000
vn 0.000000 0.000000 1.000000
s 1
g pCube3
usemtl initialShadingGroup
f 1/1/1 2/2/2 4/4/3 3/3/4
s 2
f 9/15/5 10/16/6 11/17/7 12/18/8
s 3
f 5/5/9 6/6/10 8/8/11 7/7/12
s off
f 7/7/13 8/8/14 2/10/15 1/9/16
s 4
f 2/2/17 8/11/18 6/12/19 4/4/20
s 5
f 7/13/21 1/1/22 3/3/23 5/14/24
s 1
f 13/19/25 14/20/26 10/16/27 9/15/28
s off
f 105/111/29 106/112/30 107/113/31 108/114/32
s 3
f 15/21/33 16/22/34 12/18/35 11/17/36
s 5
f 16/22/37 13/19/38 9/15/39 12/18/40
s 1
f 17/23/41 18/24/42 14/20/26 13/19/25
s off
f 73/79/43 74/80/44 75/81/45 76/82/46
s 3
f 19/25/47 20/26/48 16/22/34 15/21/33
s 5
f 20/26/49 17/23/50 13/19/38 16/22/37
s 1
f 21/27/51 22/28/52 18/24/42 17/23/41
s off
f 77/83/53 78/84/54 79/85/55 80/86/56
s 3
f 23/29/57 24/30/58 20/26/48 19/25/47
s 5
f 24/30/59 21/27/60 17/23/50 20/26/49
s 1
f 25/31/61 26/32/62 22/28/52 21/27/51
s off
f 81/87/63 82/88/64 83/89/65 84/90/66
s 3
f 27/33/67 28/34/68 24/30/58 23/29/57
s 5
f 28/34/69 25/31/70 21/27/60 24/30/59
s 1
f 29/35/71 30/36/72 26/32/62 25/31/61
s off
f 85/91/73 86/92/74 87/93/75 88/94/76
s 3
f 31/37/77 32/38/78 28/34/68 27/33/67
s 5
f 32/38/79 29/35/80 25/31/70 28/34/69
s 1
f 33/39/81 34/40/82 30/36/72 29/35/71
s off
f 89/95/83 90/96/84 91/97/85 92/98/86
s 3
f 35/41/87 36/42/88 32/38/78 31/37/77
s 5
f 36/42/89 33/39/90 29/35/80 32/38/79
s 1
f 37/43/91 38/44/92 34/40/82 33/39/81
s off
f 93/99/93 94/100/94 95/101/95 96/102/96
s 3
f 39/45/97 40/46/98 36/42/88 35/41/87
s 5
f 40/46/99 37/43/100 33/39/90 36/42/89
s 1
f 41/47/101 42/48/102 38/44/92 37/43/91
s off
f 97/103/103 98/104/104 99/105/105 100/106/106
s 3
f 43/49/107 44/50/108 40/46/98 39/45/97
s 5
f 44/50/109 41/47/110 37/43/100 40/46/99
s 1
f 45/51/111 46/52/112 42/48/102 41/47/101
s off
f 101/107/113 102/108/114 103/109/115 104/110/116
s 3
f 47/53/117 48/54/118 44/50/108 43/49/107
s 5
f 48/54/119 45/51/120 41/47/110 44/50/109
s 1
f 49/55/121 50/56/122 46/52/112 45/51/111
s off
f 69/75/123 70/76/124 71/77/125 72/78/126
s 3
f 51/57/127 52/58/128 48/54/118 47/53/117
s 5
f 52/58/129 49/55/130 45/51/120 48/54/119
s 1
f 53/59/131 54/60/132 50/56/122 49/55/121
s off
f 65/71/133 66/72/134 67/73/135 68/74/136
s 3
f 55/61/137 56/62/138 52/58/128 51/57/127
s 5
f 56/62/139 53/59/140 49/55/130 52/58/129
s 1
f 57/63/141 58/64/142 54/60/132 53/59/131
s off
f 61/67/143 62/68/144 63/69/145 64/70/146
s 3
f 59/65/147 60/66/148 56/62/138 55/61/137
s 5
f 60/66/149 57/63/150 53/59/140 56/62/139
s 1
f 3/3/4 4/4/3 58/64/142 57/63/141
s 4
f 4/4/20 6/6/19 59/65/151 58/64/152
s 3
f 6/6/10 5/5/9 60/66/148 59/65/147
s 5
f 5/5/24 3/3/23 57/63/150 60/66/149
s off
f 58/64/153 59/65/154 62/68/155 61/67/156
s 3
f 59/65/147 55/61/137 63/69/157 62/68/158
s off
f 55/61/159 54/60/160 64/70/161 63/69/162
s 1
f 54/60/132 58/64/142 61/67/163 64/70/164
s off
f 54/60/165 55/61/166 66/72/167 65/71/168
s 3
f 55/61/137 51/57/127 67/73/169 66/72/170
s off
f 51/57/171 50/56/172 68/74/173 67/73/174
s 1
f 50/56/122 54/60/132 65/71/175 68/74/176
s off
f 50/56/177 51/57/178 70/76/179 69/75/180
s 3
f 51/57/127 47/53/117 71/77/181 70/76/182
s off
f 47/53/183 46/52/184 72/78/185 71/77/186
s 1
f 46/52/112 50/56/122 69/75/187 72/78/188
s off
f 18/24/189 19/25/190 74/80/191 73/79/192
s 3
f 19/25/47 15/21/33 75/81/193 74/80/194
s off
f 15/21/195 14/20/196 76/82/197 75/81/198
s 1
f 14/20/26 18/24/42 73/79/199 76/82/200
s off
f 22/28/201 23/29/202 78/84/203 77/83/204
s 3
f 23/29/57 19/25/47 79/85/205 78/84/206
s off
f 19/25/207 18/24/208 80/86/209 79/85/210
s 1
f 18/24/42 22/28/52 77/83/211 80/86/212
s off
f 26/32/213 27/33/214 82/88/215 81/87/216
s 3
f 27/33/67 23/29/57 83/89/217 82/88/218
s off
f 23/29/219 22/28/220 84/90/221 83/89/222
s 1
f 22/28/52 26/32/62 81/87/223 84/90/224
s off
f 30/36/225 31/37/226 86/92/227 85/91/228
s 3
f 31/37/77 27/33/67 87/93/229 86/92/230
s off
f 27/33/231 26/32/232 88/94/233 87/93/234
s 1
f 26/32/62 30/36/72 85/91/235 88/94/236
s off
f 34/40/237 35/41/238 90/96/239 89/95/240
s 3
f 35/41/87 31/37/77 91/97/241 90/96/242
s off
f 31/37/243 30/36/244 92/98/245 91/97/246
s 1
f 30/36/72 34/40/82 89/95/247 92/98/248
s off
f 38/44/249 39/45/250 94/100/251 93/99/252
s 3
f 39/45/97 35/41/87 95/101/253 94/100/254
s off
f 35/41/255 34/40/256 96/102/257 95/101/258
s 1
f 34/40/82 38/44/92 93/99/259 96/102/260
s off
f 42/48/261 43/49/262 98/104/263 97/103/264
s 3
f 43/49/107 39/45/97 99/105/265 98/104/266
s off
f 39/45/267 38/44/268 100/106/269 99/105/270
s 1
f 38/44/92 42/48/102 97/103/271 100/106/272
s off
f 46/52/273 47/53/274 102/108/275 101/107/276
s 3
f 47/53/117 43/49/107 103/109/277 102/108/278
s off
f 43/49/279 42/48/280 104/110/281 103/109/282
s 1
f 42/48/102 46/52/112 101/107/283 104/110/284
s off
f 14/20/285 15/21/286 106/112/287 105/111/288
s 3
f 15/21/33 11/17/36 107/113/289 106/112/290
s 2
f 11/17/7 10/16/6 108/114/291 107/113/292
s 1
f 10/16/27 14/20/26 105/111/293 108/114/294
